SplineFontDB: 3.0
FontName: Khaanaa-green
FullName: Khaanaa Green
FamilyName: Khaanaa
Weight: Regular
Copyright: Copyright 2024 The Khaanaa Font Authors
UComments: "2024-7-22: Created with FontForge (http://fontforge.org)"
Version: 0.001
ItalicAngle: 0
UnderlinePosition: -102
UnderlineWidth: 51
Ascent: 819
Descent: 205
InvalidEm: 0
UFOAscent: 819
UFODescent: -205
LayerCount: 2
Layer: 0 0 "Back" 1
Layer: 1 1 "public.default" 0 "glyphs"
StyleMap: 0x0040
FSType: 0
OS2Version: 0
OS2_WeightWidthSlopeOnly: 0
OS2_UseTypoMetrics: 0
CreationTime: 1732813800
ModificationTime: 1748868357
PfmFamily: 16
TTFWeight: 400
TTFWidth: 5
LineGap: 0
VLineGap: 0
OS2TypoAscent: 839
OS2TypoAOffset: 0
OS2TypoDescent: -210
OS2TypoDOffset: 0
OS2TypoLinegap: 0
OS2WinAscent: 839
OS2WinAOffset: 0
OS2WinDescent: 210
OS2WinDOffset: 0
HheadAscent: 839
HheadAOffset: 0
HheadDescent: -210
HheadDOffset: 0
OS2FamilyClass: 1283
OS2Vendor: 'anir'
MarkAttachClasses: 1
DEI: 91125
LangName: 1033 "" "" "" "" "" "Version 0.001" "" "" "" "" "" "" "" "Copyright 2024, The Khaanaa Font Authors+AAoA-This Font Software is licensed under the SIL Open Font License, Version 1.1.+AAoA-This license is available with a FAQ at:https://openfontlicense.org" "https://openfontlicense.org"
Encoding: UnicodeFull
UnicodeInterp: none
NameList: AGL For New Fonts
DisplaySize: -128
AntiAlias: 1
FitToEm: 0
WinInfo: 58200 10 4
BeginPrivate: 0
EndPrivate
GridOrder2: 1
Grid
-512 296.96 m 1,0,-1
 1536 296.96 l 1025
-512 581.632 m 1,2,-1
 1536 581.632 l 1025
EndSplineSet
BeginChars: 1114113 108

StartChar: A
Encoding: 65 65 0
GlifName: A_
Width: 752
VWidth: 0
GlyphClass: 2
Flags: W
LayerCount: 2
Fore
SplineSet
505.543945312 0 m 257,0,-1
 460.102539062 46 l 257,1,-1
 459.524414062 45 l 257,2,-1
 259.524414062 45 l 257,3,-1
 157.543945312 0 l 257,4,-1
 5.5439453125 0 l 257,5,-1
 350.456054688 154 l 257,6,-1
 502.456054688 154 l 257,7,-1
 657.543945312 0 l 257,8,-1
 505.543945312 0 l 257,0,-1
431.690429688 73 m 257,9,-1
 397.3203125 107 l 257,10,-1
 321.690429688 73 l 257,11,-1
 431.690429688 73 l 257,9,-1
EndSplineSet
EndChar

StartChar: exclam
Encoding: 33 33 1
GlifName: exclam
Width: 252
VWidth: 0
GlyphClass: 2
Flags: W
LayerCount: 2
Fore
SplineSet
54.56640625 52 m 257,0,-1
 150.456054688 154 l 257,1,-1
 302.456054688 154 l 257,2,-1
 206.56640625 52 l 257,3,-1
 54.56640625 52 l 257,0,-1
5.5439453125 0 m 257,4,-1
 31.7099609375 28 l 257,5,-1
 183.709960938 28 l 257,6,-1
 157.543945312 0 l 257,7,-1
 5.5439453125 0 l 257,4,-1
EndSplineSet
EndChar

StartChar: quotedbl
Encoding: 34 34 2
GlifName: quotedbl
Width: 452
VWidth: 0
GlyphClass: 2
Flags: W
LayerCount: 2
Fore
SplineSet
273.989257812 106 m 261,0,-1
 322.010742188 158 l 257,1,-1
 474.010742188 158 l 257,2,-1
 425.989257812 106 l 257,3,-1
 273.989257812 106 l 261,0,-1
73.9892578125 106 m 257,4,-1
 122.010742188 158 l 257,5,-1
 274.010742188 158 l 257,6,-1
 225.989257812 106 l 257,7,-1
 73.9892578125 106 l 257,4,-1
EndSplineSet
EndChar

StartChar: quotesingle
Encoding: 39 39 3
GlifName: quotesingle
Width: 252
VWidth: 0
GlyphClass: 2
Flags: W
LayerCount: 2
Fore
SplineSet
73.9892578125 106 m 261,0,-1
 122.010742188 158 l 257,1,-1
 274.010742188 158 l 257,2,-1
 225.989257812 106 l 257,3,-1
 73.9892578125 106 l 261,0,-1
EndSplineSet
EndChar

StartChar: u1F64F
Encoding: 128591 128591 4
Width: 1024
Flags: W
LayerCount: 2
Fore
SplineSet
828 57.7854863834 m 25,0,-1
 657 -100 l 25,1,-1
 813 -272 l 25,2,-1
 999 -101 l 25,3,-1
 828 57.7854863834 l 25,0,-1
349.321041904 -118 m 25,4,-1
 159 27.1165309141 l 25,5,-1
 -10 -159 l 29,6,-1
 170 -325 l 29,7,-1
 349.321041904 -118 l 25,4,-1
EndSplineSet
EndChar

StartChar: numbersign
Encoding: 35 35 6
Width: 644
VWidth: 0
Flags: W
LayerCount: 2
Fore
SplineSet
230.723632812 138.400390625 m 1,0,-1
 382.723632812 138.400390625 l 1,1,-1
 355.708984375 123.599609375 l 1,2,-1
 503.708984375 123.599609375 l 1,3,-1
 530.723632812 138.400390625 l 1,4,-1
 682.723632812 138.400390625 l 1,5,-1
 655.708984375 123.599609375 l 1,6,-1
 666.791015625 123.599609375 l 1,7,-1
 638.17578125 93.2001953125 l 1,8,-1
 600.219726562 93.2001953125 l 1,9,-1
 564.444335938 73.599609375 l 1,10,-1
 619.725585938 73.599609375 l 1,11,-1
 591.110351562 43.2001953125 l 1,12,-1
 508.955078125 43.2001953125 l 1,13,-1
 484.49609375 29.7998046875 l 1,14,-1
 332.49609375 29.7998046875 l 1,15,-1
 356.955078125 43.2001953125 l 1,16,-1
 208.955078125 43.2001953125 l 1,17,-1
 184.49609375 29.7998046875 l 1,18,-1
 32.49609375 29.7998046875 l 1,19,-1
 56.955078125 43.2001953125 l 1,20,-1
 47.1103515625 43.2001953125 l 1,21,-1
 75.7255859375 73.599609375 l 1,22,-1
 112.444335938 73.599609375 l 1,23,-1
 148.219726562 93.2001953125 l 1,24,-1
 94.17578125 93.2001953125 l 1,25,-1
 122.791015625 123.599609375 l 1,26,-1
 203.708984375 123.599609375 l 1,27,-1
 230.723632812 138.400390625 l 1,0,-1
448.219726562 93.2001953125 m 1,28,-1
 300.219726562 93.2001953125 l 1,29,-1
 264.444335938 73.599609375 l 1,30,-1
 412.444335938 73.599609375 l 1,31,-1
 448.219726562 93.2001953125 l 1,28,-1
EndSplineSet
EndChar

StartChar: dollar
Encoding: 36 36 7
Width: 512
VWidth: 0
Flags: W
LayerCount: 2
Fore
SplineSet
21.7724609375 11.400390625 m 1,0,-1
 120.3046875 36.400390625 l 1,1,2
 127.174804688 35.2001953125 127.174804688 35.2001953125 139.48046875 33.400390625 c 0,3,4
 173.338867188 29 173.338867188 29 218.221679688 31 c 0,5,6
 226.434570312 31.3662109375 226.434570312 31.3662109375 234.081054688 31.9130859375 c 1,7,-1
 262.329101562 61.921875 l 1,8,9
 253.122070312 62.6376953125 253.122070312 62.6376953125 242.34375 63 c 0,10,11
 198.427734375 68.400390625 198.427734375 68.400390625 168.639648438 75 c 128,-1,12
 138.852539062 81.599609375 138.852539062 81.599609375 125.571289062 89.7998046875 c 128,-1,13
 112.290039062 98 112.290039062 98 124.515625 107.799804688 c 128,-1,14
 136.739257812 117.599609375 136.739257812 117.599609375 177.341796875 127.799804688 c 0,15,16
 244.481445312 144.649414062 244.481445312 144.649414062 346.748046875 151.603515625 c 1,17,-1
 397.952148438 206 l 1,18,-1
 476.952148438 206 l 1,19,-1
 428.848632812 154.897460938 l 1,20,21
 500.010742188 155.3125 500.010742188 155.3125 545.908203125 145.400390625 c 0,22,23
 548.34375 144.799804688 548.34375 144.799804688 554.997070312 143.900390625 c 128,-1,24
 561.649414062 143 561.649414062 143 564.084960938 142.400390625 c 1,25,-1
 465.552734375 117.400390625 l 1,26,27
 455.434570312 119.400390625 455.434570312 119.400390625 446.375976562 120.400390625 c 0,28,29
 424.788085938 123.063476562 424.788085938 123.063476562 399.005859375 123.193359375 c 1,30,-1
 358.44921875 80.109375 l 1,31,32
 384.212890625 76.626953125 384.212890625 76.626953125 402.8515625 73.099609375 c 0,33,34
 430.861328125 67.7998046875 430.861328125 67.7998046875 448.772460938 60.7998046875 c 128,-1,35
 466.684570312 53.7998046875 466.684570312 53.7998046875 456.900390625 45 c 128,-1,36
 447.1171875 36.2001953125 447.1171875 36.2001953125 407.514648438 26 c 0,37,38
 361.407226562 14.2001953125 361.407226562 14.2001953125 289.66015625 6.5 c 0,39,40
 289.380859375 6.4697265625 289.380859375 6.4697265625 289.102539062 6.4404296875 c 2,41,-1
 248.77734375 -36.400390625 l 1,42,-1
 169.77734375 -36.400390625 l 1,43,-1
 203.975585938 -0.0693359375 l 1,44,45
 177.254882812 -1.2607421875 177.254882812 -1.2607421875 151.31640625 -1.2998046875 c 0,46,47
 84.72265625 -1.400390625 84.72265625 -1.400390625 39.9482421875 8.400390625 c 0,48,49
 37.5126953125 9 37.5126953125 9 30.8603515625 9.900390625 c 128,-1,50
 24.20703125 10.7998046875 24.20703125 10.7998046875 21.7724609375 11.400390625 c 1,0,-1
314.323242188 117.157226562 m 1,51,52
 303.587890625 115.344726562 303.587890625 115.344726562 294.41015625 113 c 0,53,54
 261.69140625 104.799804688 261.69140625 104.799804688 272.965820312 95 c 0,55,56
 277.422851562 91.126953125 277.422851562 91.126953125 287.379882812 88.5341796875 c 1,57,-1
 314.323242188 117.157226562 l 1,51,52
EndSplineSet
EndChar

StartChar: percent
Encoding: 37 37 8
Width: 691
VWidth: 0
Flags: W
LayerCount: 2
Fore
SplineSet
252.567382812 97 m 261,0,-1
 250.567382812 97 l 257,1,-1
 243.567382812 97 l 257,2,3
 193.145507812 98 193.145507812 98 165.686523438 105 c 128,-1,4
 138.227539062 112 138.227539062 112 147.501953125 122 c 128,-1,5
 156.775390625 132 156.775390625 132 199.10546875 139.5 c 128,-1,6
 241.435546875 147 241.435546875 147 292.012695312 148 c 1,7,-1
 299.012695312 148 l 257,8,-1
 301.012695312 148 l 257,9,-1
 303.012695312 148 l 258,10,11
 357.012695312 148 357.012695312 148 387.182617188 140.5 c 128,-1,12
 417.352539062 133 417.352539062 133 407.001953125 122 c 0,13,14
 396.650390625 111 396.650390625 111 352.609375 104 c 128,-1,15
 308.567382812 97 308.567382812 97 254.567382812 97 c 2,16,-1
 252.567382812 97 l 261,0,-1
287.352539062 133 m 260,17,18
 283.352539062 133 283.352539062 133 275.352539062 133 c 1,19,-1
 275.352539062 133 l 257,20,21
 255.775390625 132 255.775390625 132 241.54296875 129 c 128,-1,22
 227.310546875 126 227.310546875 126 223.001953125 122 c 0,23,24
 219.692382812 118 219.692382812 118 228.749023438 115.5 c 128,-1,25
 237.805664062 113 237.805664062 113 256.227539062 112 c 1,26,-1
 256.227539062 112 l 257,27,28
 264.227539062 112 264.227539062 112 268.227539062 112 c 128,-1,29
 272.227539062 112 272.227539062 112 280.227539062 112 c 1,30,-1
 280.227539062 112 l 257,31,32
 299.805664062 113 299.805664062 113 313.749023438 115.5 c 128,-1,33
 327.692382812 118 327.692382812 118 331.001953125 122 c 0,34,35
 334.310546875 126 334.310546875 126 326.04296875 129 c 128,-1,36
 317.775390625 132 317.775390625 132 299.352539062 133 c 1,37,-1
 299.352539062 133 l 257,38,39
 291.352539062 133 291.352539062 133 287.352539062 133 c 260,17,18
481.802734375 16 m 257,40,-1
 479.802734375 16 l 257,41,-1
 472.802734375 16 l 257,42,43
 422.379882812 17 422.379882812 17 395.209960938 24.5 c 128,-1,44
 368.040039062 32 368.040039062 32 377.313476562 42 c 128,-1,45
 386.586914062 52 386.586914062 52 428.416992188 59.5 c 128,-1,46
 470.247070312 67 470.247070312 67 521.82421875 68 c 1,47,-1
 528.82421875 68 l 257,48,-1
 530.82421875 68 l 257,49,-1
 532.82421875 68 l 258,50,51
 586.82421875 68 586.82421875 68 616.994140625 60.5 c 128,-1,52
 647.1640625 53 647.1640625 53 636.813476562 42 c 0,53,54
 626.462890625 31 626.462890625 31 582.1328125 23.5 c 128,-1,55
 537.802734375 16 537.802734375 16 483.802734375 16 c 2,56,-1
 481.802734375 16 l 257,40,-1
517.1640625 53 m 256,57,58
 513.1640625 53 513.1640625 53 504.586914062 52 c 1,59,-1
 505.1640625 53 l 257,60,61
 485.586914062 52 485.586914062 52 471.354492188 49 c 128,-1,62
 457.123046875 46 457.123046875 46 452.813476562 42 c 0,63,64
 449.50390625 38 449.50390625 38 458.272460938 35 c 128,-1,65
 467.040039062 32 467.040039062 32 486.040039062 32 c 1,66,-1
 486.040039062 32 l 257,67,68
 494.040039062 32 494.040039062 32 497.250976562 31.5 c 128,-1,69
 500.462890625 31 500.462890625 31 510.040039062 32 c 1,70,-1
 510.040039062 32 l 257,71,72
 529.6171875 33 529.6171875 33 543.560546875 35.5 c 128,-1,73
 557.50390625 38 557.50390625 38 560.813476562 42 c 0,74,75
 564.123046875 46 564.123046875 46 555.854492188 49 c 128,-1,76
 547.586914062 52 547.586914062 52 529.1640625 53 c 1,77,-1
 528.586914062 52 l 257,78,79
 521.1640625 53 521.1640625 53 517.1640625 53 c 256,57,58
647.25 164 m 257,80,-1
 740.745117188 151 l 257,81,-1
 97.75 -17 l 257,82,-1
 3.2548828125 -4 l 257,83,-1
 647.25 164 l 257,80,-1
EndSplineSet
EndChar

StartChar: ampersand
Encoding: 38 38 9
Width: 649
VWidth: 0
Flags: W
LayerCount: 2
Fore
SplineSet
494.823242188 162 m 1,0,-1
 468.966796875 138 l 1,1,2
 450.966796875 138 450.966796875 138 379.924804688 131 c 128,-1,3
 308.883789062 124 308.883789062 124 291.151367188 121 c 0,4,5
 250.110351562 114 250.110351562 114 244.336914062 104 c 1,6,-1
 263.02734375 100 l 1,7,8
 314.336914062 104 314.336914062 104 366.336914062 104 c 0,9,10
 379.336914062 104 379.336914062 104 391.759765625 103 c 1,11,-1
 364.59375 75 l 1,12,-1
 454.314453125 52 l 1,13,14
 584.70703125 70 584.70703125 70 589.284179688 71 c 1,15,-1
 560.38671875 40 l 2,16,17
 557.38671875 40 557.38671875 40 523.077148438 36 c 1,18,-1
 574.571289062 23 l 1,19,-1
 434.71484375 -1 l 1,20,-1
 372.952148438 15 l 1,21,22
 272.870117188 1 272.870117188 1 268.870117188 1 c 0,23,24
 161.870117188 1 161.870117188 1 100.530273438 16 c 128,-1,25
 39.1904296875 31 39.1904296875 31 59.314453125 52 c 0,26,27
 72.3974609375 66 72.3974609375 66 118.326171875 78 c 1,28,-1
 105.057617188 81 l 1,29,30
 92.099609375 88 92.099609375 88 94.7177734375 96 c 128,-1,31
 97.3369140625 104 97.3369140625 104 114.456054688 112 c 128,-1,32
 131.57421875 120 131.57421875 120 151.827148438 126.5 c 128,-1,33
 172.080078125 133 172.080078125 133 204.276367188 142 c 0,34,35
 221.163085938 147 221.163085938 147 286.837890625 152.5 c 128,-1,36
 352.513671875 158 352.513671875 158 416.74609375 161 c 128,-1,37
 480.977539062 164 480.977539062 164 494.823242188 162 c 1,0,-1
304.767578125 32 m 1,38,-1
 212.469726562 54 l 1,39,40
 210.891601562 53 210.891601562 53 210.314453125 52 c 0,41,42
 202.118164062 43 202.118164062 43 227.154296875 37 c 128,-1,43
 252.190429688 31 252.190429688 31 297.190429688 31 c 0,44,45
 298.190429688 31 298.190429688 31 304.767578125 32 c 1,38,-1
EndSplineSet
EndChar

StartChar: parenleft
Encoding: 40 40 10
Width: 555
VWidth: 0
Flags: W
LayerCount: 2
Fore
SplineSet
528.146484375 149 m 257,0,1
 428.146484375 149 428.146484375 149 318.4453125 127 c 128,-1,2
 208.743164062 105 208.743164062 105 182 76 c 0,3,4
 154.256835938 47 154.256835938 47 222.266601562 24.5 c 128,-1,5
 290.276367188 2 290.276367188 2 390.276367188 2 c 1,6,-1
 459.543945312 -1 l 257,7,8
 423.966796875 -2 423.966796875 -2 385.389648438 -3 c 0,9,10
 227.389648438 -3 227.389648438 -3 137.16796875 20 c 128,-1,11
 46.947265625 43 46.947265625 43 78 76 c 128,-1,12
 109.052734375 109 109.052734375 109 242.33203125 132 c 128,-1,13
 375.610351562 155 375.610351562 155 533.610351562 155 c 0,14,15
 572.610351562 155 572.610351562 155 605.456054688 153 c 1,16,-1
 528.146484375 149 l 257,0,1
EndSplineSet
EndChar

StartChar: parenright
Encoding: 41 41 11
Width: 555
VWidth: 0
Flags: W
LayerCount: 2
Fore
SplineSet
219.146484375 149 m 261,0,-1
 150.456054688 153 l 257,1,2
 186.033203125 154 186.033203125 154 224.610351562 155 c 0,3,4
 382.610351562 155 382.610351562 155 473.33203125 132 c 128,-1,5
 564.052734375 109 564.052734375 109 533 76 c 128,-1,6
 501.947265625 43 501.947265625 43 368.16796875 20 c 128,-1,7
 234.389648438 -3 234.389648438 -3 76.3896484375 -3 c 0,8,9
 37.3896484375 -3 37.3896484375 -3 4.5439453125 -1 c 1,10,-1
 81.2763671875 2 l 257,11,12
 181.276367188 2 181.276367188 2 290.977539062 24 c 128,-1,13
 400.6796875 46 400.6796875 46 429 76 c 0,14,15
 456.743164062 105 456.743164062 105 387.9453125 127 c 128,-1,16
 319.146484375 149 319.146484375 149 219.146484375 149 c 261,0,-1
EndSplineSet
EndChar

StartChar: asterisk
Encoding: 42 42 12
Width: 644
VWidth: 0
Flags: W
LayerCount: 2
Fore
SplineSet
638.66015625 99 m 1,0,-1
 610.33984375 69 l 1,1,-1
 521.33984375 69 l 1,2,-1
 571.833984375 56 l 1,3,-1
 445.709960938 35 l 1,4,-1
 393.637695312 47 l 1,5,-1
 377.823242188 30 l 1,6,-1
 225.823242188 30 l 1,7,-1
 241.637695312 47 l 1,8,-1
 167.709960938 35 l 1,9,-1
 79.833984375 56 l 1,10,-1
 155.33984375 69 l 1,11,-1
 66.33984375 69 l 1,12,-1
 94.66015625 99 l 1,13,-1
 183.66015625 99 l 1,14,-1
 133.166015625 112 l 1,15,-1
 259.290039062 133 l 1,16,-1
 311.362304688 121 l 1,17,-1
 327.176757812 138 l 1,18,-1
 479.176757812 138 l 1,19,-1
 463.362304688 121 l 1,20,-1
 537.290039062 133 l 1,21,-1
 625.166015625 112 l 1,22,-1
 549.66015625 99 l 1,23,-1
 638.66015625 99 l 1,0,-1
EndSplineSet
EndChar

StartChar: plus
Encoding: 43 43 13
Width: 644
VWidth: 0
Flags: W
LayerCount: 2
Fore
SplineSet
638.66015625 99 m 261,0,-1
 610.33984375 69 l 257,1,-1
 66.33984375 69 l 257,2,-1
 94.66015625 99 l 257,3,-1
 638.66015625 99 l 261,0,-1
327.176757812 138 m 261,4,-1
 479.176757812 138 l 257,5,-1
 377.823242188 30 l 257,6,-1
 225.823242188 30 l 257,7,-1
 327.176757812 138 l 261,4,-1
EndSplineSet
EndChar

StartChar: comma
Encoding: 44 44 14
Width: 252
VWidth: 0
Flags: W
LayerCount: 2
Fore
SplineSet
49.7109375 0 m 5,0,-1
 75.876953125 28 l 1,1,-1
 227.876953125 28 l 1,2,-1
 201.7109375 0 l 1,3,-1
 116.123046875 -27 l 1,4,-1
 59.7001953125 -26 l 1,5,-1
 92.7109375 0 l 1,6,-1
 49.7109375 0 l 5,0,-1
EndSplineSet
EndChar

StartChar: hyphen
Encoding: 45 45 15
Width: 644
VWidth: 0
Flags: W
LayerCount: 2
Fore
SplineSet
638.66015625 99 m 261,0,-1
 610.33984375 69 l 257,1,-1
 66.33984375 69 l 257,2,-1
 94.66015625 99 l 257,3,-1
 638.66015625 99 l 261,0,-1
EndSplineSet
EndChar

StartChar: period
Encoding: 46 46 16
Width: 252
VWidth: 0
Flags: W
LayerCount: 2
Fore
SplineSet
41.9169921875 0 m 257,0,-1
 68.0830078125 28 l 257,1,-1
 220.083007812 28 l 257,2,-1
 193.916992188 0 l 257,3,-1
 41.9169921875 0 l 257,0,-1
EndSplineSet
EndChar

StartChar: slash
Encoding: 47 47 17
Width: 691
VWidth: 0
Flags: W
LayerCount: 2
Fore
SplineSet
647.25 164 m 257,0,-1
 740.745117188 151 l 257,1,-1
 97.75 -17 l 257,2,-1
 3.2548828125 -4 l 257,3,-1
 647.25 164 l 257,0,-1
EndSplineSet
EndChar

StartChar: zero
Encoding: 48 48 18
Width: 864
VWidth: 0
Flags: W
LayerCount: 2
Fore
SplineSet
765 76 m 256,0,1
 744.875976562 55 744.875976562 55 687.194335938 36.5 c 128,-1,2
 629.513671875 18 629.513671875 18 549.451171875 7.5 c 128,-1,3
 469.389648438 -3 469.389648438 -3 385.889648438 -3 c 128,-1,4
 302.389648438 -3 302.389648438 -3 241.951171875 7.5 c 128,-1,5
 181.513671875 18 181.513671875 18 157.694335938 36.5 c 128,-1,6
 133.875976562 55 133.875976562 55 154 76 c 0,7,8
 174.124023438 97 174.124023438 97 232.305664062 115.5 c 128,-1,9
 290.486328125 134 290.486328125 134 371.048828125 144.5 c 128,-1,10
 451.610351562 155 451.610351562 155 534.610351562 155 c 128,-1,11
 617.610351562 155 617.610351562 155 678.048828125 144.5 c 128,-1,12
 738.486328125 134 738.486328125 134 761.805664062 115.5 c 128,-1,13
 785.124023438 97 785.124023438 97 765 76 c 256,0,1
643 76 m 256,14,15
 660.969726562 95 660.969726562 95 620.263671875 108.5 c 128,-1,16
 579.55859375 122 579.55859375 122 503.55859375 122 c 128,-1,17
 427.55859375 122 427.55859375 122 360.763671875 108.5 c 128,-1,18
 293.969726562 95 293.969726562 95 276 76 c 0,19,20
 257.453125 56 257.453125 56 298.159179688 42.5 c 128,-1,21
 338.864257812 29 338.864257812 29 415.364257812 29 c 128,-1,22
 491.864257812 29 491.864257812 29 558.159179688 42.5 c 128,-1,23
 624.453125 56 624.453125 56 643 76 c 256,14,15
EndSplineSet
EndChar

StartChar: one
Encoding: 49 49 19
Width: 252
VWidth: 0
Flags: W
LayerCount: 2
Fore
SplineSet
150.745117188 155 m 257,0,-1
 302.745117188 155 l 257,1,-1
 157.254882812 0 l 257,2,-1
 5.2548828125 0 l 257,3,-1
 150.745117188 155 l 257,0,-1
EndSplineSet
EndChar

StartChar: two
Encoding: 50 50 20
Width: 555
VWidth: 0
Flags: W
LayerCount: 2
Fore
SplineSet
199.26953125 117 m 4,0,1
 294.26953125 117 294.26953125 117 350.918945312 106 c 128,-1,2
 407.567382812 95 407.567382812 95 392.907226562 80 c 0,3,4
 378.247070312 65 378.247070312 65 303.473632812 55 c 128,-1,5
 228.700195312 45 228.700195312 45 130.700195312 45 c 0,6,7
 92.7001953125 45 92.7001953125 45 59.8544921875 47 c 1,8,-1
 12.7197265625 0 l 1,9,-1
 516.296875 1 l 1,10,-1
 539.153320312 25 l 1,11,-1
 264.153320312 25 l 1,12,13
 374.194335938 32 374.194335938 32 451.06640625 46.5 c 128,-1,14
 527.9375 61 527.9375 61 545.907226562 80 c 0,15,16
 561.72265625 97 561.72265625 97 524.59375 111.5 c 128,-1,17
 487.465820312 126 487.465820312 126 407.373046875 134.5 c 128,-1,18
 327.280273438 143 327.280273438 143 223.280273438 143 c 0,19,20
 186.280273438 143 186.280273438 143 149.703125 142 c 1,21,-1
 124.114257812 115 l 1,22,23
 161.26953125 117 161.26953125 117 199.26953125 117 c 4,0,1
EndSplineSet
EndChar

StartChar: three
Encoding: 51 51 21
Width: 435
VWidth: 0
Flags: W
LayerCount: 2
Fore
SplineSet
9.0078125 -1 m 5,0,-1
 32.44140625 24 l 1,1,2
 44.8642578125 23 44.8642578125 23 56.8642578125 23 c 0,3,4
 122.864257812 23 122.864257812 23 173.750976562 28 c 128,-1,5
 224.637695312 33 224.637695312 33 231.6796875 40 c 0,6,7
 237.720703125 47 237.720703125 47 215.607421875 52 c 128,-1,8
 193.494140625 57 193.494140625 57 154.072265625 58 c 0,9,10
 148.072265625 58 148.072265625 58 141.572265625 58 c 128,-1,11
 135.072265625 58 135.072265625 58 129.072265625 58 c 0,12,13
 122.072265625 58 122.072265625 58 114.494140625 57 c 1,14,-1
 115.072265625 58 l 1,15,-1
 137.927734375 82 l 1,16,-1
 138.505859375 83 l 1,17,18
 145.505859375 83 145.505859375 83 150.927734375 82 c 0,19,20
 156.927734375 82 156.927734375 82 163.427734375 82 c 128,-1,21
 169.927734375 82 169.927734375 82 176.927734375 82 c 0,22,23
 218.505859375 83 218.505859375 83 249.892578125 88 c 128,-1,24
 281.279296875 93 281.279296875 93 286.743164062 99 c 0,25,26
 293.784179688 106 293.784179688 106 254.459960938 111.5 c 128,-1,27
 215.135742188 117 215.135742188 117 151.135742188 117 c 0,28,29
 138.135742188 117 138.135742188 117 124.55859375 116 c 1,30,-1
 147.9921875 141 l 1,31,32
 160.9921875 141 160.9921875 141 173.9921875 141 c 0,33,34
 299.9921875 141 299.9921875 141 377.063476562 129 c 128,-1,35
 454.135742188 117 454.135742188 117 437.743164062 99 c 0,36,37
 421.927734375 82 421.927734375 82 336 70 c 1,38,39
 399.072265625 58 399.072265625 58 382.467773438 40.5 c 128,-1,40
 365.864257812 23 365.864257812 23 264.436523438 11 c 128,-1,41
 163.0078125 -1 163.0078125 -1 35.0078125 -1 c 0,42,43
 22.0078125 -1 22.0078125 -1 9.0078125 -1 c 5,0,-1
EndSplineSet
EndChar

StartChar: four
Encoding: 52 52 22
Width: 752
VWidth: 0
Flags: W
LayerCount: 2
Fore
SplineSet
349.254882812 0 m 257,0,-1
 385.194335938 38 l 257,1,-1
 384.194335938 38 l 257,2,-1
 49.1943359375 38 l 257,3,-1
 480.745117188 155 l 257,4,-1
 623.745117188 155 l 257,5,-1
 478.254882812 0 l 257,6,-1
 349.254882812 0 l 257,0,-1
405.515625 68 m 257,7,-1
 439.299804688 104 l 257,8,-1
 308.092773438 69 l 257,9,-1
 405.515625 68 l 257,7,-1
EndSplineSet
EndChar

StartChar: five
Encoding: 53 53 23
Width: 384
VWidth: 0
Flags: W
LayerCount: 2
Fore
SplineSet
5.5439453125 1 m 1,0,-1
 33.8642578125 31 l 1,1,2
 45.287109375 30 45.287109375 30 59.8642578125 31 c 0,3,4
 104.864257812 31 104.864257812 31 141.829101562 37 c 128,-1,5
 178.79296875 43 178.79296875 43 186.989257812 52 c 0,6,7
 195.184570312 61 195.184570312 61 170.149414062 67 c 128,-1,8
 145.11328125 73 145.11328125 73 100.11328125 73 c 0,9,10
 86.11328125 73 86.11328125 73 73.11328125 73 c 1,11,-1
 79.5771484375 79 l 1,12,-1
 102.43359375 103 l 1,13,-1
 150.456054688 155 l 1,14,-1
 151.456054688 155 l 1,15,-1
 151.456054688 155 l 1,16,-1
 468.456054688 155 l 1,17,-1
 438.55859375 124 l 1,18,-1
 273.55859375 124 l 1,19,-1
 247.969726562 97 l 1,20,21
 301.927734375 90 301.927734375 90 326.5 78 c 128,-1,22
 351.072265625 66 351.072265625 66 337.989257812 52 c 0,23,24
 317.864257812 31 317.864257812 31 228.204101562 16 c 128,-1,25
 138.543945312 1 138.543945312 1 31.5439453125 1 c 0,26,27
 14.5439453125 1 14.5439453125 1 5.5439453125 1 c 1,0,-1
EndSplineSet
EndChar

StartChar: six
Encoding: 54 54 24
Width: 729
VWidth: 0
Flags: W
LayerCount: 2
Fore
SplineSet
503.55859375 122 m 0,0,1
 418.55859375 122 418.55859375 122 344.20703125 111 c 128,-1,2
 269.856445312 100 269.856445312 100 240.041015625 83 c 1,3,4
 323.702148438 98 323.702148438 98 428.856445312 100 c 0,5,6
 436.856445312 100 436.856445312 100 443.856445312 100 c 0,7,8
 445.856445312 100 445.856445312 100 446.856445312 100 c 0,9,10
 447.856445312 100 l 0,11,12
 448.856445312 100 448.856445312 100 450.856445312 100 c 0,13,14
 541.856445312 100 541.856445312 100 601.716796875 88.5 c 128,-1,15
 661.577148438 77 661.577148438 77 664.762695312 60 c 0,16,17
 665.297851562 54 665.297851562 54 660.833984375 48 c 0,18,19
 653.215820312 40 653.215820312 40 634.173828125 33 c 0,20,21
 586.204101562 14 586.204101562 14 491.430664062 4 c 1,22,23
 435.389648438 -3 435.389648438 -3 385.389648438 -3 c 0,24,25
 381.389648438 -3 381.389648438 -3 378.389648438 -3 c 0,26,27
 366.389648438 -3 366.389648438 -3 354.389648438 -3 c 0,28,29
 353.389648438 -3 353.389648438 -3 352.389648438 -3 c 0,30,-1
 351.389648438 -3 l 0,31,32
 350.389648438 -3 l 0,33,34
 348.389648438 -3 348.389648438 -3 346.389648438 -3 c 0,35,36
 337.389648438 -3 337.389648438 -3 332.389648438 -3 c 0,37,38
 253.966796875 -2 253.966796875 -2 200.740234375 8 c 1,39,40
 124.513671875 18 124.513671875 18 91.1943359375 36.5 c 128,-1,41
 57.8759765625 55 57.8759765625 55 78 76 c 0,42,43
 109.052734375 109 109.052734375 109 242.33203125 132 c 128,-1,44
 375.610351562 155 375.610351562 155 533.610351562 155 c 0,45,46
 616.610351562 155 616.610351562 155 651.456054688 153 c 1,47,-1
 620.403320312 120 l 1,48,49
 605.98046875 121 605.98046875 121 566.76953125 121.5 c 128,-1,50
 527.55859375 122 527.55859375 122 503.55859375 122 c 0,0,1
408.267578125 73 m 0,51,52
 397.267578125 73 397.267578125 73 383.267578125 73 c 1,53,-1
 384.267578125 73 l 1,54,55
 345.690429688 72 345.690429688 72 316.2265625 66 c 128,-1,56
 286.762695312 60 286.762695312 60 279.143554688 52 c 0,57,58
 268.79296875 41 268.79296875 41 306.329101562 35 c 0,59,60
 320.173828125 33 320.173828125 33 336.596679688 32 c 0,61,62
 340.596679688 32 340.596679688 32 344.01953125 31 c 1,63,-1
 344.01953125 31 l 1,64,65
 354.44140625 30 354.44140625 30 368.01953125 31 c 0,66,67
 380.01953125 31 380.01953125 31 392.01953125 31 c 1,68,-1
 392.01953125 31 l 1,69,70
 430.596679688 32 430.596679688 32 460.060546875 38 c 128,-1,71
 489.524414062 44 489.524414062 44 497.143554688 52 c 128,-1,72
 504.762695312 60 504.762695312 60 485.9375 65.5 c 128,-1,73
 467.11328125 71 467.11328125 71 432.267578125 73 c 1,74,-1
 431.267578125 73 l 1,75,76
 420.267578125 73 420.267578125 73 408.267578125 73 c 0,51,52
EndSplineSet
EndChar

StartChar: seven
Encoding: 55 55 25
Width: 610
VWidth: 0
Flags: W
LayerCount: 2
Fore
SplineSet
169.12109375 0 m 257,0,-1
 7.12109375 0 l 257,1,-1
 459.55859375 122 l 257,2,-1
 120.55859375 122 l 257,3,-1
 148.87890625 152 l 257,4,-1
 658.87890625 152 l 257,5,-1
 630.55859375 122 l 257,6,-1
 169.12109375 0 l 257,0,-1
EndSplineSet
EndChar

StartChar: eight
Encoding: 56 56 26
Width: 616
VWidth: 0
Flags: W
LayerCount: 2
Fore
SplineSet
331.2265625 73 m 256,0,1
 318.2265625 73 318.2265625 73 306.2265625 73 c 1,2,-1
 307.2265625 73 l 257,3,4
 268.649414062 72 268.649414062 72 239.184570312 66 c 128,-1,5
 209.720703125 60 209.720703125 60 202.102539062 52 c 0,6,7
 194.483398438 44 194.483398438 44 213.307617188 38.5 c 128,-1,8
 232.1328125 33 232.1328125 33 266.977539062 31 c 1,9,-1
 266.977539062 31 l 257,10,11
 277.400390625 30 277.400390625 30 290.977539062 31 c 0,12,13
 302.977539062 31 302.977539062 31 314.977539062 31 c 1,14,-1
 314.977539062 31 l 257,15,16
 353.5546875 32 353.5546875 32 383.01953125 38 c 128,-1,17
 412.483398438 44 412.483398438 44 420.102539062 52 c 0,18,19
 427.720703125 60 427.720703125 60 408.896484375 65.5 c 128,-1,20
 390.072265625 71 390.072265625 71 355.2265625 73 c 1,21,-1
 354.2265625 73 l 257,22,23
 343.2265625 73 343.2265625 73 331.2265625 73 c 256,0,1
388.4453125 134 m 256,24,25
 375.4453125 134 375.4453125 134 364.4453125 134 c 1,26,-1
 364.4453125 134 l 257,27,28
 325.8671875 133 325.8671875 133 296.403320312 127 c 128,-1,29
 266.939453125 121 266.939453125 121 259.3203125 113 c 0,30,31
 251.702148438 105 251.702148438 105 270.526367188 99.5 c 128,-1,32
 289.350585938 94 289.350585938 94 325.196289062 92 c 1,33,-1
 325.196289062 92 l 257,34,35
 335.619140625 91 335.619140625 91 348.196289062 92 c 0,36,37
 360.196289062 92 360.196289062 92 373.196289062 92 c 1,38,-1
 373.196289062 92 l 257,39,40
 411.7734375 93 411.7734375 93 440.737304688 99 c 128,-1,41
 469.702148438 105 469.702148438 105 477.3203125 113 c 0,42,43
 484.939453125 121 484.939453125 121 466.114257812 126.5 c 128,-1,44
 447.290039062 132 447.290039062 132 412.4453125 134 c 1,45,-1
 412.4453125 134 l 257,46,47
 400.4453125 134 400.4453125 134 388.4453125 134 c 256,24,25
261.657226562 1 m 0,48,49
 261.657226562 1 l 0,50,51
 259.657226562 1 259.657226562 1 257.657226562 1 c 0,52,53
 249.657226562 1 249.657226562 1 242.657226562 1 c 0,54,55
 142.234375 2 142.234375 2 87.39453125 17 c 128,-1,56
 32.5546875 32 32.5546875 32 51.1025390625 52 c 0,57,58
 66.9169921875 69 66.9169921875 69 130 83 c 1,59,60
 93.0830078125 97 93.0830078125 97 108.3203125 113 c 0,61,62
 126.8671875 133 126.8671875 133 210.52734375 148 c 128,-1,63
 294.188476562 163 294.188476562 163 396.765625 164 c 0,64,65
 402.765625 164 402.765625 164 411.342773438 165 c 0,66,67
 413.342773438 165 413.342773438 165 415.342773438 165 c 0,68,69
 416.342773438 165 l 0,70,71
 417.342773438 165 417.342773438 165 419.342773438 165 c 0,72,73
 526.342773438 165 526.342773438 165 587.393554688 149.5 c 128,-1,74
 648.4453125 134 648.4453125 134 628.3203125 113 c 0,75,76
 612.505859375 96 612.505859375 96 550 83 c 1,77,78
 586.916992188 69 586.916992188 69 571.102539062 52 c 0,79,80
 550.977539062 31 550.977539062 31 461.317382812 16 c 128,-1,81
 371.657226562 1 371.657226562 1 264.657226562 1 c 0,82,83
 263.657226562 1 263.657226562 1 263.157226562 1 c 128,-1,84
 262.657226562 1 262.657226562 1 261.657226562 1 c 0,48,49
EndSplineSet
EndChar

StartChar: nine
Encoding: 57 57 27
Width: 729
VWidth: 0
Flags: W
LayerCount: 2
Fore
SplineSet
260.864257812 29 m 0,0,1
 345.864257812 29 345.864257812 29 420.00390625 40.5 c 128,-1,2
 494.143554688 52 494.143554688 52 523.380859375 68 c 1,3,4
 439.720703125 53 439.720703125 53 335.143554688 52 c 0,5,6
 327.143554688 52 327.143554688 52 320.143554688 52 c 0,7,8
 318.143554688 52 318.143554688 52 317.143554688 52 c 0,9,10
 316.143554688 52 l 0,11,12
 315.143554688 52 315.143554688 52 313.143554688 52 c 0,13,14
 222.143554688 52 222.143554688 52 161.994140625 63 c 128,-1,15
 101.845703125 74 101.845703125 74 99.2373046875 92 c 0,16,17
 98.7021484375 98 98.7021484375 98 103.588867188 103 c 0,18,19
 111.20703125 111 111.20703125 111 129.826171875 119 c 0,20,21
 177.795898438 138 177.795898438 138 272.569335938 148 c 1,22,23
 328.610351562 155 328.610351562 155 378.033203125 154 c 0,24,25
 382.033203125 154 382.033203125 154 385.033203125 154 c 0,26,27
 397.033203125 154 397.033203125 154 409.610351562 155 c 0,28,29
 410.610351562 155 410.610351562 155 411.610351562 155 c 0,30,-1
 412.610351562 155 l 0,31,32
 413.610351562 155 l 0,33,34
 415.610351562 155 415.610351562 155 417.610351562 155 c 0,35,36
 426.610351562 155 426.610351562 155 431.033203125 154 c 0,37,38
 509.456054688 153 509.456054688 153 562.682617188 143 c 1,39,40
 638.909179688 133 638.909179688 133 672.516601562 115 c 128,-1,41
 706.124023438 97 706.124023438 97 687 76 c 0,42,43
 655.947265625 43 655.947265625 43 522.16796875 20 c 128,-1,44
 388.389648438 -3 388.389648438 -3 230.389648438 -3 c 0,45,46
 147.389648438 -3 147.389648438 -3 111.966796875 -2 c 1,47,-1
 144.596679688 32 l 1,48,49
 159.01953125 31 159.01953125 31 197.94140625 30 c 128,-1,50
 236.864257812 29 236.864257812 29 260.864257812 29 c 0,0,1
356.154296875 78 m 0,51,52
 367.154296875 78 367.154296875 78 380.732421875 79 c 1,53,-1
 380.732421875 79 l 1,54,55
 419.309570312 80 419.309570312 80 448.2734375 86 c 128,-1,56
 477.237304688 92 477.237304688 92 484.856445312 100 c 0,57,58
 495.20703125 111 495.20703125 111 457.670898438 117 c 0,59,60
 443.826171875 119 443.826171875 119 427.403320312 120 c 0,61,62
 423.403320312 120 423.403320312 120 419.403320312 120 c 1,63,-1
 419.403320312 120 l 1,64,65
 408.98046875 121 408.98046875 121 395.98046875 121 c 0,66,67
 383.98046875 121 383.98046875 121 371.403320312 120 c 1,68,-1
 371.403320312 120 l 1,69,70
 332.826171875 119 332.826171875 119 303.362304688 113 c 128,-1,71
 273.897460938 107 273.897460938 107 266.856445312 100 c 0,72,73
 259.237304688 92 259.237304688 92 277.7734375 86 c 128,-1,74
 296.309570312 80 296.309570312 80 332.732421875 79 c 1,75,-1
 332.732421875 79 l 1,76,77
 344.154296875 78 344.154296875 78 356.154296875 78 c 0,51,52
EndSplineSet
EndChar

StartChar: colon
Encoding: 58 58 28
Width: 252
VWidth: 0
Flags: W
LayerCount: 2
Fore
SplineSet
94.0107421875 80 m 261,0,-1
 120.176757812 108 l 257,1,-1
 272.176757812 108 l 257,2,-1
 246.010742188 80 l 257,3,-1
 94.0107421875 80 l 261,0,-1
18.8232421875 0 m 257,4,-1
 44.9892578125 28 l 257,5,-1
 196.989257812 28 l 257,6,-1
 170.823242188 0 l 257,7,-1
 18.8232421875 0 l 257,4,-1
EndSplineSet
EndChar

StartChar: semicolon
Encoding: 59 59 29
Width: 252
VWidth: 0
Flags: W
LayerCount: 2
Fore
SplineSet
26.6171875 0 m 5,0,-1
 52.783203125 28 l 1,1,-1
 204.783203125 28 l 1,2,-1
 178.6171875 0 l 1,3,-1
 93.029296875 -27 l 1,4,-1
 36.6064453125 -26 l 1,5,-1
 69.6171875 0 l 1,6,-1
 26.6171875 0 l 5,0,-1
101.805664062 80 m 257,7,-1
 127.970703125 108 l 257,8,-1
 279.970703125 108 l 257,9,-1
 253.805664062 80 l 257,10,-1
 101.805664062 80 l 257,7,-1
EndSplineSet
EndChar

StartChar: less
Encoding: 60 60 30
Width: 644
VWidth: 0
Flags: W
LayerCount: 2
Fore
SplineSet
657.09375 109 m 5,0,-1
 628.7734375 79 l 1,1,-1
 403.422851562 68 l 1,2,-1
 610.2265625 59 l 1,3,-1
 580.90625 29 l 1,4,-1
 57.0302734375 50 l 1,5,-1
 57.0302734375 50 l 1,6,-1
 85.3505859375 80 l 1,7,-1
 85.927734375 81 l 1,8,-1
 657.09375 109 l 5,0,-1
EndSplineSet
EndChar

StartChar: equal
Encoding: 61 61 31
Width: 644
VWidth: 0
Flags: W
LayerCount: 2
Fore
SplineSet
610.2265625 59 m 261,0,-1
 580.90625 29 l 257,1,-1
 36.90625 29 l 257,2,-1
 66.2265625 59 l 257,3,-1
 610.2265625 59 l 261,0,-1
657.09375 109 m 257,4,-1
 628.7734375 79 l 257,5,-1
 84.7734375 79 l 257,6,-1
 113.09375 109 l 257,7,-1
 657.09375 109 l 257,4,-1
EndSplineSet
EndChar

StartChar: greater
Encoding: 62 62 32
Width: 644
VWidth: 0
Flags: W
LayerCount: 2
Fore
SplineSet
113.09375 109 m 5,0,-1
 629.927734375 81 l 1,1,-1
 629.350585938 80 l 1,2,-1
 601.030273438 50 l 1,3,-1
 601.030273438 50 l 1,4,-1
 36.90625 29 l 1,5,-1
 66.2265625 59 l 1,6,-1
 288.422851562 68 l 1,7,-1
 84.7734375 79 l 1,8,-1
 113.09375 109 l 5,0,-1
EndSplineSet
EndChar

StartChar: question
Encoding: 63 63 33
Width: 384
VWidth: 0
Flags: W
LayerCount: 2
Fore
SplineSet
2.080078125 0 m 257,0,-1
 28.24609375 28 l 257,1,-1
 180.24609375 28 l 257,2,-1
 154.080078125 0 l 257,3,-1
 2.080078125 0 l 257,0,-1
157.919921875 166 m 1,4,5
 166.919921875 166 166.919921875 166 183.919921875 166 c 0,6,7
 290.919921875 166 290.919921875 166 352.259765625 151 c 128,-1,8
 413.599609375 136 413.599609375 136 393.897460938 114 c 0,9,10
 380.815429688 100 380.815429688 100 333.38671875 88 c 128,-1,11
 285.958984375 76 285.958984375 76 218.916992188 69 c 1,12,-1
 197.637695312 46 l 1,13,-1
 45.6376953125 46 l 1,14,-1
 61.453125 63 l 1,15,-1
 84.88671875 88 l 1,16,-1
 90.3505859375 94 l 1,17,18
 101.7734375 93 101.7734375 93 115.7734375 93 c 0,19,20
 160.7734375 93 160.7734375 93 197.237304688 99 c 128,-1,21
 233.702148438 105 233.702148438 105 242.897460938 114 c 0,22,23
 251.09375 123 251.09375 123 225.846679688 129.5 c 128,-1,24
 200.599609375 136 200.599609375 136 155.599609375 136 c 0,25,26
 141.599609375 136 141.599609375 136 129.022460938 135 c 1,27,-1
 157.919921875 166 l 1,4,5
EndSplineSet
EndChar

StartChar: B
Encoding: 66 66 34
Width: 512
VWidth: 0
Flags: W
LayerCount: 2
Fore
SplineSet
303.745117188 156 m 258,0,1
 309.745117188 156 309.745117188 156 321.745117188 156 c 0,2,3
 428.745117188 156 428.745117188 156 490.083984375 141 c 128,-1,4
 551.423828125 126 551.423828125 126 530.72265625 104 c 0,5,6
 525.8359375 99 525.8359375 99 508.026367188 95 c 128,-1,7
 490.216796875 91 490.216796875 91 460.830078125 86 c 128,-1,8
 431.443359375 81 431.443359375 81 424.2890625 79 c 0,9,10
 426.2890625 79 426.2890625 79 450.536132812 72.5 c 128,-1,11
 474.783203125 66 474.783203125 66 483.684570312 61.5 c 128,-1,12
 492.586914062 57 492.586914062 57 487.700195312 52 c 0,13,14
 467.576171875 31 467.576171875 31 377.916015625 16 c 128,-1,15
 288.254882812 1 288.254882812 1 181.254882812 1 c 0,16,17
 165.254882812 1 165.254882812 1 157.254882812 1 c 2,18,-1
 5.2548828125 1 l 257,19,-1
 151.745117188 156 l 257,20,-1
 303.745117188 156 l 258,0,1
182.266601562 27 m 257,21,22
 193.689453125 26 193.689453125 26 206.266601562 27 c 256,23,24
 251.266601562 27 251.266601562 27 287.73046875 33 c 128,-1,25
 324.194335938 39 324.194335938 39 332.390625 48 c 0,26,27
 340.586914062 57 340.586914062 57 315.55078125 63 c 128,-1,28
 290.515625 69 290.515625 69 245.515625 69 c 0,29,30
 233.515625 69 233.515625 69 221.515625 69 c 257,31,-1
 182.266601562 27 l 257,21,22
242.216796875 91 m 257,32,33
 253.639648438 90 253.639648438 90 265.639648438 90 c 256,34,35
 310.639648438 90 310.639648438 90 347.392578125 96.5 c 128,-1,36
 384.145507812 103 384.145507812 103 392.763671875 111 c 0,37,38
 400.959960938 120 400.959960938 120 375.712890625 126.5 c 128,-1,39
 350.465820312 133 350.465820312 133 305.465820312 133 c 0,40,41
 293.465820312 133 293.465820312 133 280.888671875 132 c 257,42,-1
 242.216796875 91 l 257,32,33
EndSplineSet
EndChar

StartChar: C
Encoding: 67 67 35
Width: 555
VWidth: 0
Flags: W
LayerCount: 2
Fore
SplineSet
503.55859375 122 m 260,0,1
 408.55859375 122 408.55859375 122 328.763671875 108.5 c 128,-1,2
 248.969726562 95 248.969726562 95 231 76 c 0,3,4
 212.453125 56 212.453125 56 266.159179688 42.5 c 128,-1,5
 319.864257812 29 319.864257812 29 414.864257812 29 c 0,6,7
 452.864257812 29 452.864257812 29 490.01953125 31 c 1,8,-1
 460.543945312 -1 l 257,9,10
 422.966796875 -2 422.966796875 -2 385.389648438 -3 c 0,11,12
 227.389648438 -3 227.389648438 -3 137.16796875 20 c 128,-1,13
 46.947265625 43 46.947265625 43 78 76 c 128,-1,14
 109.052734375 109 109.052734375 109 242.33203125 132 c 128,-1,15
 375.610351562 155 375.610351562 155 533.610351562 155 c 0,16,17
 570.610351562 155 570.610351562 155 605.456054688 153 c 1,18,-1
 574.403320312 120 l 257,19,20
 541.55859375 122 541.55859375 122 503.55859375 122 c 260,0,1
EndSplineSet
EndChar

StartChar: D
Encoding: 68 68 36
Width: 630
VWidth: 0
Flags: W
LayerCount: 2
Fore
SplineSet
151.033203125 154 m 257,0,1
 165.456054688 153 165.456054688 153 225.033203125 154 c 128,-1,2
 284.610351562 155 284.610351562 155 299.610351562 155 c 0,3,4
 457.610351562 155 457.610351562 155 548.33203125 132 c 128,-1,5
 639.052734375 109 639.052734375 109 608 76 c 0,6,7
 587.875976562 55 587.875976562 55 520.483398438 37 c 128,-1,8
 453.090820312 19 453.090820312 19 355.740234375 8 c 128,-1,9
 258.389648438 -3 258.389648438 -3 155.389648438 -3 c 0,10,-1
 3.3896484375 -3 l 257,11,-1
 151.033203125 154 l 257,0,1
184.864257812 29 m 257,12,13
 278.864257812 29 278.864257812 29 357.159179688 42.5 c 128,-1,14
 435.453125 56 435.453125 56 455 76 c 0,15,16
 472.969726562 95 472.969726562 95 419.763671875 108.5 c 128,-1,17
 366.55859375 122 366.55859375 122 273.55859375 122 c 1,18,-1
 184.864257812 29 l 257,12,13
EndSplineSet
EndChar

StartChar: E
Encoding: 69 69 37
Width: 668
VWidth: 0
Flags: W
LayerCount: 2
Fore
SplineSet
555.258789062 97 m 257,0,-1
 527.9375 67 l 257,1,-1
 219.9375 67 l 257,2,-1
 185.576171875 30 l 257,3,-1
 600.576171875 30 l 257,4,-1
 572.677734375 -1 l 257,5,-1
 5.677734375 -1 l 257,6,-1
 6.2548828125 0 l 257,7,-1
 5.2548828125 0 l 257,8,-1
 150.745117188 155 l 257,9,-1
 152.322265625 156 l 257,10,-1
 719.322265625 156 l 257,11,-1
 691.423828125 125 l 257,12,-1
 275.423828125 125 l 257,13,-1
 248.258789062 97 l 257,14,-1
 555.258789062 97 l 257,0,-1
EndSplineSet
EndChar

StartChar: F
Encoding: 70 70 38
Width: 668
VWidth: 0
Flags: W
LayerCount: 2
Fore
SplineSet
554.969726562 97 m 257,0,-1
 527.649414062 67 l 257,1,-1
 219.649414062 67 l 257,2,-1
 156.966796875 0 l 257,3,-1
 4.966796875 0 l 257,4,-1
 150.456054688 155 l 257,5,-1
 152.033203125 156 l 257,6,-1
 719.033203125 156 l 257,7,-1
 691.135742188 125 l 257,8,-1
 275.135742188 125 l 257,9,-1
 247.969726562 97 l 257,10,-1
 554.969726562 97 l 257,0,-1
EndSplineSet
EndChar

StartChar: G
Encoding: 71 71 39
Width: 651
VWidth: 0
Flags: W
LayerCount: 2
Fore
SplineSet
503.55859375 122 m 256,0,1
 408.55859375 122 408.55859375 122 328.763671875 108.5 c 128,-1,2
 248.969726562 95 248.969726562 95 231 76 c 0,3,4
 212.453125 56 212.453125 56 266.159179688 42.5 c 128,-1,5
 319.864257812 29 319.864257812 29 414.864257812 29 c 0,6,7
 423.864257812 29 423.864257812 29 431.864257812 29 c 1,8,-1
 464.494140625 63 l 257,9,-1
 616.494140625 63 l 257,10,-1
 554.389648438 -3 l 257,11,-1
 402.389648438 -3 l 258,12,13
 394.389648438 -3 394.389648438 -3 385.389648438 -3 c 0,14,15
 227.389648438 -3 227.389648438 -3 137.16796875 20 c 128,-1,16
 46.947265625 43 46.947265625 43 78 76 c 128,-1,17
 109.052734375 109 109.052734375 109 242.33203125 132 c 128,-1,18
 375.610351562 155 375.610351562 155 533.610351562 155 c 0,19,20
 570.610351562 155 570.610351562 155 605.456054688 153 c 1,21,-1
 574.403320312 120 l 257,22,23
 541.55859375 122 541.55859375 122 503.55859375 122 c 256,0,1
EndSplineSet
EndChar

StartChar: H
Encoding: 72 72 40
Width: 652
VWidth: 0
Flags: W
LayerCount: 2
Fore
SplineSet
550.745117188 155 m 257,0,-1
 702.745117188 155 l 257,1,-1
 557.254882812 0 l 257,2,-1
 405.254882812 0 l 257,3,-1
 467.9375 67 l 257,4,-1
 219.9375 67 l 257,5,-1
 157.254882812 0 l 257,6,-1
 5.2548828125 0 l 257,7,-1
 150.745117188 155 l 257,8,-1
 302.745117188 155 l 257,9,-1
 248.258789062 97 l 257,10,-1
 496.258789062 97 l 257,11,-1
 550.745117188 155 l 257,0,-1
EndSplineSet
EndChar

StartChar: I
Encoding: 73 73 41
Width: 252
VWidth: 0
Flags: W
LayerCount: 2
Fore
SplineSet
150.745117188 155 m 257,0,-1
 302.745117188 155 l 257,1,-1
 157.254882812 0 l 257,2,-1
 5.2548828125 0 l 257,3,-1
 150.745117188 155 l 257,0,-1
EndSplineSet
EndChar

StartChar: J
Encoding: 74 74 42
Width: 419
VWidth: 0
Flags: W
LayerCount: 2
Fore
SplineSet
6.9873046875 1 m 257,0,-1
 39.6171875 35 l 257,1,2
 65.73046875 30 65.73046875 30 105.73046875 30 c 0,3,4
 154.73046875 30 154.73046875 30 192.772460938 37 c 1,5,-1
 301.166992188 152 l 257,6,-1
 468.166992188 152 l 257,7,-1
 356.772460938 37 l 257,8,9
 316.95703125 20 316.95703125 20 240.39453125 9.5 c 128,-1,10
 163.833007812 -1 163.833007812 -1 76.8330078125 -1 c 0,11,12
 38.8330078125 -1 38.8330078125 -1 6.9873046875 1 c 257,0,-1
EndSplineSet
EndChar

StartChar: K
Encoding: 75 75 43
Width: 703
VWidth: 0
Flags: W
LayerCount: 2
Fore
SplineSet
151.033203125 155 m 257,0,-1
 303.033203125 155 l 257,1,-1
 239.7734375 87 l 257,2,-1
 547.456054688 154 l 257,3,-1
 733.456054688 154 l 257,4,-1
 400 77 l 257,5,-1
 657.966796875 -1 l 257,6,-1
 466.543945312 0 l 257,7,-1
 271.184570312 60 l 257,8,-1
 198.947265625 44 l 257,9,-1
 157.543945312 0 l 257,10,-1
 5.5439453125 0 l 257,11,-1
 151.033203125 155 l 257,0,-1
EndSplineSet
EndChar

StartChar: L
Encoding: 76 76 44
Width: 718
VWidth: 0
Flags: W
LayerCount: 2
Fore
SplineSet
151.033203125 155 m 261,0,-1
 303.033203125 155 l 257,1,-1
 185.864257812 30 l 257,2,-1
 650.864257812 30 l 257,3,-1
 622.966796875 -1 l 257,4,-1
 5.966796875 -1 l 257,5,-1
 6.5439453125 0 l 257,6,-1
 5.5439453125 0 l 257,7,-1
 151.033203125 155 l 261,0,-1
EndSplineSet
EndChar

StartChar: M
Encoding: 77 77 45
Width: 1052
VWidth: 0
Flags: W
LayerCount: 2
Fore
SplineSet
150.456054688 154 m 257,0,-1
 302.456054688 154 l 257,1,-1
 509.287109375 29 l 257,2,-1
 950.456054688 154 l 257,3,-1
 1102.45605469 154 l 257,4,-1
 957.543945312 0 l 257,5,-1
 805.543945312 0 l 257,6,-1
 895.392578125 95 l 257,7,-1
 557.543945312 0 l 257,8,-1
 405.543945312 0 l 257,9,-1
 247.392578125 95 l 257,10,-1
 157.543945312 0 l 257,11,-1
 5.5439453125 0 l 257,12,-1
 150.456054688 154 l 257,0,-1
EndSplineSet
EndChar

StartChar: N
Encoding: 78 78 46
Width: 852
VWidth: 0
Flags: W
LayerCount: 2
Fore
SplineSet
150.745117188 155 m 257,0,-1
 302.745117188 155 l 257,1,-1
 652.123046875 50 l 257,2,-1
 750.745117188 155 l 257,3,-1
 902.745117188 155 l 257,4,-1
 757.254882812 0 l 257,5,-1
 605.254882812 0 l 257,6,-1
 255.876953125 105 l 257,7,-1
 157.254882812 0 l 257,8,-1
 5.2548828125 0 l 257,9,-1
 150.745117188 155 l 257,0,-1
EndSplineSet
EndChar

StartChar: O
Encoding: 79 79 47
Width: 864
VWidth: 0
Flags: W
LayerCount: 2
Fore
SplineSet
842 76 m 260,0,1
 810.947265625 43 810.947265625 43 677.16796875 20 c 128,-1,2
 543.389648438 -3 543.389648438 -3 385.389648438 -3 c 128,-1,3
 227.389648438 -3 227.389648438 -3 137.16796875 20 c 128,-1,4
 46.947265625 43 46.947265625 43 78 76 c 128,-1,5
 109.052734375 109 109.052734375 109 242.33203125 132 c 128,-1,6
 375.610351562 155 375.610351562 155 533.610351562 155 c 128,-1,7
 691.610351562 155 691.610351562 155 782.33203125 132 c 128,-1,8
 873.052734375 109 873.052734375 109 842 76 c 260,0,1
689 76 m 260,9,10
 706.969726562 95 706.969726562 95 652.763671875 108.5 c 128,-1,11
 598.55859375 122 598.55859375 122 503.55859375 122 c 128,-1,12
 408.55859375 122 408.55859375 122 328.763671875 108.5 c 128,-1,13
 248.969726562 95 248.969726562 95 231 76 c 0,14,15
 212.453125 56 212.453125 56 266.159179688 42.5 c 128,-1,16
 319.864257812 29 319.864257812 29 414.864257812 29 c 128,-1,17
 509.864257812 29 509.864257812 29 590.159179688 42.5 c 128,-1,18
 670.453125 56 670.453125 56 689 76 c 260,9,10
EndSplineSet
EndChar

StartChar: P
Encoding: 80 80 48
Width: 534
VWidth: 0
Flags: W
LayerCount: 2
Fore
SplineSet
157.254882812 1 m 257,0,-1
 5.2548828125 1 l 257,1,-1
 151.745117188 156 l 257,2,-1
 303.745117188 156 l 258,3,4
 311.745117188 156 311.745117188 156 327.745117188 156 c 0,5,6
 434.745117188 156 434.745117188 156 496.083984375 141 c 128,-1,7
 557.423828125 126 557.423828125 126 537.010742188 104.5 c 128,-1,8
 516.59765625 83 516.59765625 83 426.9375 68 c 128,-1,9
 337.27734375 53 337.27734375 53 230.27734375 53 c 0,10,11
 214.27734375 53 214.27734375 53 206.27734375 53 c 1,12,-1
 157.254882812 1 l 257,0,-1
274.846679688 125 m 257,13,-1
 236.17578125 84 l 257,14,15
 247.59765625 83 247.59765625 83 258.59765625 83 c 256,16,17
 303.59765625 83 303.59765625 83 340.850585938 89.5 c 128,-1,18
 378.103515625 96 378.103515625 96 386.299804688 105 c 0,19,20
 394.49609375 114 394.49609375 114 369.459960938 120 c 128,-1,21
 344.423828125 126 344.423828125 126 299.423828125 126 c 0,22,23
 287.423828125 126 287.423828125 126 274.846679688 125 c 257,13,-1
EndSplineSet
EndChar

StartChar: Q
Encoding: 81 81 49
Width: 864
VWidth: 0
Flags: W
LayerCount: 2
Fore
SplineSet
699.103515625 76 m 256,0,1
 717.073242188 95 717.073242188 95 662.8671875 108.5 c 128,-1,2
 608.662109375 122 608.662109375 122 513.662109375 122 c 128,-1,3
 418.662109375 122 418.662109375 122 338.8671875 108.5 c 128,-1,4
 259.073242188 95 259.073242188 95 241.103515625 76 c 0,5,6
 222.556640625 56 222.556640625 56 276.262695312 42.5 c 128,-1,7
 329.967773438 29 329.967773438 29 424.967773438 29 c 128,-1,8
 519.967773438 29 519.967773438 29 600.262695312 42.5 c 128,-1,9
 680.556640625 56 680.556640625 56 699.103515625 76 c 256,0,1
852.103515625 76 m 256,10,11
 836.2890625 59 836.2890625 59 787.33984375 43.5 c 128,-1,12
 738.390625 28 738.390625 28 667.040039062 17 c 1,13,-1
 778.451171875 -10 l 257,14,-1
 614.286132812 -38 l 257,15,-1
 465.0703125 -2 l 257,16,17
 430.493164062 -3 430.493164062 -3 395.493164062 -3 c 0,18,19
 237.493164062 -3 237.493164062 -3 147.272460938 20 c 128,-1,20
 57.05078125 43 57.05078125 43 88.103515625 76 c 128,-1,21
 119.15625 109 119.15625 109 252.435546875 132 c 128,-1,22
 385.713867188 155 385.713867188 155 543.713867188 155 c 128,-1,23
 701.713867188 155 701.713867188 155 792.435546875 132 c 128,-1,24
 883.15625 109 883.15625 109 852.103515625 76 c 256,10,11
EndSplineSet
EndChar

StartChar: R
Encoding: 82 82 50
Width: 512
VWidth: 0
Flags: W
LayerCount: 2
Fore
SplineSet
275.423828125 125 m 257,0,-1
 236.752929688 84 l 257,1,2
 248.17578125 83 248.17578125 83 259.17578125 83 c 256,3,4
 304.17578125 83 304.17578125 83 341.427734375 89.5 c 128,-1,5
 378.680664062 96 378.680664062 96 386.876953125 105 c 0,6,7
 395.073242188 114 395.073242188 114 370.037109375 120 c 128,-1,8
 345.001953125 126 345.001953125 126 300.001953125 126 c 0,9,10
 288.001953125 126 288.001953125 126 275.423828125 125 c 257,0,-1
157.833007812 1 m 257,11,-1
 5.8330078125 1 l 257,12,-1
 152.322265625 156 l 257,13,-1
 304.322265625 156 l 258,14,15
 312.322265625 156 312.322265625 156 328.322265625 156 c 0,16,17
 435.322265625 156 435.322265625 156 496.662109375 141 c 128,-1,18
 558.001953125 126 558.001953125 126 537.876953125 105 c 0,19,20
 522.0625 88 522.0625 88 461.767578125 74.5 c 128,-1,21
 401.473632812 61 401.473632812 61 321.586914062 56 c 1,22,-1
 466.677734375 -1 l 257,23,-1
 326.677734375 -1 l 257,24,-1
 211.854492188 53 l 258,25,26
 208.854492188 53 208.854492188 53 206.854492188 53 c 1,27,-1
 157.833007812 1 l 257,11,-1
EndSplineSet
EndChar

StartChar: S
Encoding: 83 83 51
Width: 512
VWidth: 0
Flags: W
LayerCount: 2
Fore
SplineSet
21.18359375 11 m 257,0,-1
 119.6171875 36 l 257,1,2
 129.462890625 34 129.462890625 34 138.885742188 33 c 0,3,4
 172.576171875 29 172.576171875 29 216.73046875 31 c 128,-1,5
 260.885742188 33 260.885742188 33 290.926757812 40 c 0,6,7
 320.545898438 48 320.545898438 48 302.086914062 55 c 128,-1,8
 283.62890625 62 283.62890625 62 242.206054688 63 c 1,9,10
 182.247070312 70 182.247070312 70 150.232421875 79.5 c 128,-1,11
 118.216796875 89 118.216796875 89 119.43359375 101.5 c 128,-1,12
 120.650390625 114 120.650390625 114 177.733398438 128 c 0,13,14
 245.548828125 145 245.548828125 145 353.435546875 150 c 128,-1,15
 461.322265625 155 461.322265625 155 545.548828125 145 c 0,16,17
 547.970703125 144 547.970703125 144 554.682617188 143.5 c 128,-1,18
 561.393554688 143 561.393554688 143 563.81640625 142 c 1,19,-1
 465.3828125 117 l 257,20,21
 455.537109375 119 455.537109375 119 446.114257812 120 c 0,22,23
 412.423828125 124 412.423828125 124 367.76953125 122 c 128,-1,24
 323.114257812 120 323.114257812 120 294.073242188 113 c 0,25,26
 261.454101562 105 261.454101562 105 272.680664062 95 c 128,-1,27
 283.907226562 85 283.907226562 85 330.330078125 84 c 1,28,29
 374.443359375 79 374.443359375 79 403.267578125 73.5 c 128,-1,30
 432.092773438 68 432.092773438 68 450.05078125 61 c 128,-1,31
 468.009765625 54 468.009765625 54 457.813476562 45 c 128,-1,32
 447.6171875 36 447.6171875 36 406.84375 26 c 0,33,34
 338.451171875 8 338.451171875 8 231.064453125 3 c 128,-1,35
 123.677734375 -2 123.677734375 -2 39.451171875 8 c 0,36,37
 37.029296875 9 37.029296875 9 30.3173828125 9.5 c 128,-1,38
 23.6064453125 10 23.6064453125 10 21.18359375 11 c 257,0,-1
EndSplineSet
EndChar

StartChar: T
Encoding: 84 84 52
Width: 676
VWidth: 0
Flags: W
LayerCount: 2
Fore
SplineSet
365.166992188 153 m 257,0,-1
 517.166992188 153 l 257,1,-1
 372.833007812 0 l 257,2,-1
 220.833007812 0 l 257,3,-1
 365.166992188 153 l 257,0,-1
124.846679688 123 m 257,4,-1
 153.166992188 153 l 257,5,-1
 729.166992188 153 l 257,6,-1
 700.846679688 123 l 257,7,-1
 124.846679688 123 l 257,4,-1
EndSplineSet
EndChar

StartChar: U
Encoding: 85 85 53
Width: 669
VWidth: 0
Flags: W
LayerCount: 2
Fore
SplineSet
606.194335938 37 m 257,0,1
 579.266601562 25 579.266601562 25 527.147460938 17 c 128,-1,2
 475.029296875 9 475.029296875 9 415.219726562 5 c 128,-1,3
 355.41015625 1 355.41015625 1 291.41015625 1 c 128,-1,4
 227.41015625 1 227.41015625 1 174.430664062 4.5 c 128,-1,5
 121.451171875 8 121.451171875 8 85.359375 16.5 c 128,-1,6
 49.2666015625 25 49.2666015625 25 43.1943359375 37 c 1,7,-1
 148.58984375 152 l 257,8,-1
 315.58984375 152 l 257,9,-1
 207.194335938 37 l 257,10,11
 230.153320312 30 230.153320312 30 319.153320312 30 c 128,-1,12
 408.153320312 30 408.153320312 30 442.194335938 37 c 1,13,-1
 550.58984375 152 l 257,14,-1
 717.58984375 152 l 257,15,-1
 606.194335938 37 l 257,0,1
EndSplineSet
EndChar

StartChar: V
Encoding: 86 86 54
Width: 652
VWidth: 0
Flags: W
LayerCount: 2
Fore
SplineSet
150.456054688 154 m 257,0,-1
 302.456054688 154 l 257,1,-1
 336.030273438 58 l 257,2,-1
 550.456054688 154 l 257,3,-1
 702.456054688 154 l 257,4,-1
 357.543945312 0 l 257,5,-1
 205.543945312 0 l 257,6,-1
 150.456054688 154 l 257,0,-1
EndSplineSet
EndChar

StartChar: W
Encoding: 87 87 55
Width: 1000
VWidth: 0
Flags: W
LayerCount: 2
Fore
SplineSet
150.456054688 154 m 257,0,-1
 302.456054688 154 l 257,1,-1
 336.030273438 58 l 257,2,-1
 550.456054688 154 l 257,3,-1
 702.456054688 154 l 257,4,-1
 357.543945312 0 l 257,5,-1
 205.543945312 0 l 257,6,-1
 150.456054688 154 l 257,0,-1
551.456054688 154 m 257,7,-1
 703.456054688 154 l 257,8,-1
 737.030273438 58 l 257,9,-1
 951.456054688 154 l 257,10,-1
 1103.45605469 154 l 257,11,-1
 758.543945312 0 l 257,12,-1
 606.543945312 0 l 257,13,-1
 551.456054688 154 l 257,7,-1
EndSplineSet
EndChar

StartChar: X
Encoding: 88 88 56
Width: 724
VWidth: 0
Flags: W
LayerCount: 2
Fore
SplineSet
150.456054688 154 m 257,0,-1
 336.456054688 154 l 257,1,-1
 422.897460938 108 l 257,2,-1
 598.456054688 154 l 257,3,-1
 773.456054688 154 l 257,4,-1
 481.577148438 78 l 257,5,-1
 629.543945312 0 l 257,6,-1
 454.543945312 0 l 257,7,-1
 362.6796875 47 l 257,8,-1
 184.543945312 0 l 257,9,-1
 6.5439453125 0 l 257,10,-1
 302 77 l 257,11,-1
 150.456054688 154 l 257,0,-1
EndSplineSet
EndChar

StartChar: Y
Encoding: 89 89 57
Width: 512
VWidth: 0
Flags: W
LayerCount: 2
Fore
SplineSet
233.793945312 90 m 257,0,-1
 94.1669921875 153 l 257,1,-1
 246.166992188 153 l 257,2,-1
 337.537109375 119 l 257,3,-1
 494.166992188 153 l 257,4,-1
 646.166992188 153 l 257,5,-1
 386.793945312 90 l 257,6,-1
 385.793945312 90 l 257,7,-1
 300.833007812 0 l 257,8,-1
 148.833007812 0 l 257,9,-1
 233.793945312 90 l 257,0,-1
EndSplineSet
EndChar

StartChar: Z
Encoding: 90 90 58
Width: 783
VWidth: 0
Flags: W
LayerCount: 2
Fore
SplineSet
7.6982421875 2 m 257,0,-1
 36.01953125 32 l 257,1,-1
 549.98046875 122 l 257,2,-1
 119.98046875 122 l 257,3,-1
 148.301757812 152 l 257,4,-1
 831.301757812 152 l 257,5,-1
 802.98046875 122 l 257,6,-1
 287.01953125 32 l 257,7,-1
 719.01953125 32 l 257,8,-1
 690.698242188 2 l 257,9,-1
 7.6982421875 2 l 257,0,-1
EndSplineSet
EndChar

StartChar: bracketleft
Encoding: 91 91 59
Width: 362
VWidth: 0
Flags: W
LayerCount: 2
Fore
SplineSet
-4.36328125 -16 m 5,0,-1
 -5.36328125 -16 l 1,1,-1
 -5.36328125 -16 l 1,2,-1
 155.36328125 155 l 1,3,-1
 155.36328125 155 l 1,4,-1
 156.36328125 155 l 1,5,-1
 417.36328125 155 l 1,6,-1
 400.548828125 138 l 1,7,-1
 233.548828125 138 l 1,8,-1
 104.451171875 1 l 1,9,-1
 271.451171875 1 l 1,10,-1
 256.63671875 -16 l 1,11,-1
 -4.36328125 -16 l 5,0,-1
EndSplineSet
EndChar

StartChar: backslash
Encoding: 92 92 60
Width: 691
VWidth: 0
Flags: W
LayerCount: 2
Fore
SplineSet
268.25 164 m 257,0,-1
 594.254882812 -4 l 257,1,-1
 476.75 -17 l 257,2,-1
 149.745117188 151 l 257,3,-1
 268.25 164 l 257,0,-1
EndSplineSet
EndChar

StartChar: bracketright
Encoding: 93 93 61
Width: 362
VWidth: 0
Flags: W
LayerCount: 2
Fore
SplineSet
255.63671875 -16 m 1,0,-1
 -5.36328125 -16 l 1,1,-1
 11.451171875 1 l 1,2,-1
 178.451171875 1 l 1,3,-1
 307.548828125 138 l 1,4,-1
 140.548828125 138 l 1,5,-1
 155.36328125 155 l 1,6,-1
 416.36328125 155 l 1,7,-1
 417.36328125 155 l 1,8,-1
 417.36328125 155 l 1,9,-1
 256.63671875 -16 l 1,10,-1
 256.63671875 -16 l 1,11,-1
 255.63671875 -16 l 1,0,-1
EndSplineSet
EndChar

StartChar: asciicircum
Encoding: 94 94 62
Width: 644
VWidth: 0
Flags: W
LayerCount: 2
Fore
SplineSet
122.947265625 57 m 1,0,-1
 328.052734375 123 l 1,1,-1
 329.052734375 123 l 1,2,-1
 480.052734375 123 l 1,3,-1
 481.052734375 123 l 1,4,-1
 524.947265625 57 l 1,5,-1
 372.947265625 57 l 1,6,-1
 370.196289062 99 l 1,7,-1
 274.947265625 57 l 1,8,-1
 122.947265625 57 l 1,0,-1
EndSplineSet
EndChar

StartChar: underscore
Encoding: 95 95 63
Width: 544
VWidth: 0
Flags: W
LayerCount: 2
Fore
SplineSet
566.66015625 39 m 261,0,-1
 538.33984375 9 l 257,1,-1
 -5.66015625 9 l 257,2,-1
 22.66015625 39 l 257,3,-1
 566.66015625 39 l 261,0,-1
EndSplineSet
EndChar

StartChar: grave
Encoding: 96 96 64
Width: 252
VWidth: 0
Flags: W
LayerCount: 2
Fore
SplineSet
184.256835938 103 m 261,0,-1
 36.619140625 140 l 257,1,-1
 164.743164062 161 l 257,2,-1
 311.958984375 125 l 257,3,-1
 184.256835938 103 l 261,0,-1
EndSplineSet
EndChar

StartChar: a
Encoding: 97 97 65
Width: 512
VWidth: 0
Flags: W
LayerCount: 2
Fore
SplineSet
302.266601562 0 m 257,0,-1
 304.420898438 2 l 257,1,2
 296.420898438 2 296.420898438 2 280.420898438 2 c 0,3,4
 173.420898438 2 173.420898438 2 112.081054688 17 c 128,-1,5
 50.7412109375 32 50.7412109375 32 69.8662109375 53 c 0,6,7
 89.990234375 74 89.990234375 74 178.362304688 88.5 c 128,-1,8
 266.733398438 103 266.733398438 103 374.733398438 103 c 0,9,10
 390.733398438 103 390.733398438 103 398.733398438 103 c 2,11,-1
 550.733398438 103 l 257,12,-1
 454.266601562 0 l 257,13,-1
 302.266601562 0 l 257,0,-1
371.990234375 74 m 257,14,15
 360.567382812 75 360.567382812 75 347.990234375 74 c 256,16,17
 302.990234375 74 302.990234375 74 266.526367188 68 c 128,-1,18
 230.0625 62 230.0625 62 220.866210938 53 c 0,19,20
 212.669921875 44 212.669921875 44 238.206054688 38 c 128,-1,21
 263.741210938 32 263.741210938 32 308.741210938 32 c 0,22,23
 320.741210938 32 320.741210938 32 332.741210938 32 c 257,24,-1
 371.990234375 74 l 257,14,15
EndSplineSet
EndChar

StartChar: b
Encoding: 98 98 66
Width: 512
VWidth: 0
Flags: W
LayerCount: 2
Fore
SplineSet
303.745117188 156 m 257,0,-1
 254.145507812 103 l 257,1,2
 262.145507812 103 262.145507812 103 278.72265625 104 c 0,3,4
 385.72265625 104 385.72265625 104 446.7734375 88.5 c 128,-1,5
 507.82421875 73 507.82421875 73 487.700195312 52 c 128,-1,6
 467.576171875 31 467.576171875 31 377.916015625 16 c 128,-1,7
 288.254882812 1 288.254882812 1 181.254882812 1 c 0,8,9
 165.254882812 1 165.254882812 1 157.254882812 1 c 2,10,-1
 5.2548828125 1 l 257,11,-1
 151.745117188 156 l 257,12,-1
 303.745117188 156 l 257,0,-1
185.576171875 31 m 257,13,14
 196.998046875 30 196.998046875 30 209.576171875 31 c 256,15,16
 254.576171875 31 254.576171875 31 291.540039062 37 c 128,-1,17
 328.50390625 43 328.50390625 43 336.700195312 52 c 0,18,19
 344.896484375 61 344.896484375 61 319.860351562 67 c 128,-1,20
 294.82421875 73 294.82421875 73 249.82421875 73 c 0,21,22
 237.82421875 73 237.82421875 73 224.82421875 73 c 257,23,-1
 185.576171875 31 l 257,13,14
EndSplineSet
EndChar

StartChar: c
Encoding: 99 99 67
Width: 384
VWidth: 0
Flags: W
LayerCount: 2
Fore
SplineSet
304.266601562 1 m 261,0,1
 291.266601562 1 291.266601562 1 278.266601562 1 c 0,2,3
 171.266601562 1 171.266601562 1 109.926757812 16 c 128,-1,4
 48.5869140625 31 48.5869140625 31 68.7109375 52 c 128,-1,5
 88.8359375 73 88.8359375 73 178.784179688 88.5 c 128,-1,6
 268.733398438 104 268.733398438 104 375.733398438 104 c 0,7,8
 388.733398438 104 388.733398438 104 401.15625 103 c 1,9,-1
 371.8359375 73 l 257,10,11
 359.413085938 74 359.413085938 74 346.8359375 73 c 0,12,13
 301.8359375 73 301.8359375 73 264.87109375 67 c 128,-1,14
 227.907226562 61 227.907226562 61 219.7109375 52 c 0,15,16
 211.515625 43 211.515625 43 236.55078125 37 c 128,-1,17
 261.586914062 31 261.586914062 31 306.586914062 31 c 0,18,19
 319.586914062 31 319.586914062 31 332.586914062 31 c 1,20,-1
 304.266601562 1 l 261,0,1
EndSplineSet
EndChar

StartChar: d
Encoding: 100 100 68
Width: 512
VWidth: 0
Flags: W
LayerCount: 2
Fore
SplineSet
433.745117188 156 m 257,0,-1
 585.745117188 156 l 257,1,-1
 439.254882812 1 l 257,2,-1
 287.254882812 1 l 258,3,4
 275.254882812 1 275.254882812 1 263.254882812 1 c 0,5,6
 156.254882812 1 156.254882812 1 94.916015625 16 c 128,-1,7
 33.576171875 31 33.576171875 31 53.7001953125 52 c 128,-1,8
 73.82421875 73 73.82421875 73 163.7734375 88.5 c 128,-1,9
 253.72265625 104 253.72265625 104 360.72265625 104 c 0,10,11
 372.72265625 104 372.72265625 104 384.145507812 103 c 1,12,-1
 433.745117188 156 l 257,0,-1
315.576171875 31 m 257,13,-1
 355.82421875 73 l 257,14,15
 344.40234375 74 344.40234375 74 331.82421875 73 c 0,16,17
 286.82421875 73 286.82421875 73 249.860351562 67 c 128,-1,18
 212.896484375 61 212.896484375 61 204.700195312 52 c 0,19,20
 196.50390625 43 196.50390625 43 221.540039062 37 c 128,-1,21
 246.576171875 31 246.576171875 31 291.576171875 31 c 0,22,23
 302.998046875 30 302.998046875 30 315.576171875 31 c 257,13,-1
EndSplineSet
EndChar

StartChar: e
Encoding: 101 101 69
Width: 617
VWidth: 0
Flags: W
LayerCount: 2
Fore
SplineSet
584.85546875 52 m 256,0,1
 582.701171875 50 582.701171875 50 580.180664062 46.5 c 128,-1,2
 577.659179688 43 577.659179688 43 576.08203125 42 c 1,3,-1
 224.504882812 41 l 257,4,5
 233.618164062 36 233.618164062 36 255.674804688 33.5 c 128,-1,6
 277.731445312 31 277.731445312 31 306.731445312 31 c 0,7,8
 340.731445312 31 340.731445312 31 445.01953125 31.5 c 128,-1,9
 549.30859375 32 549.30859375 32 557.30859375 32 c 1,10,-1
 527.411132812 1 l 257,11,12
 507.833007812 0 507.833007812 0 278.411132812 1 c 0,13,14
 171.411132812 1 171.411132812 1 110.071289062 16 c 128,-1,15
 48.7314453125 31 48.7314453125 31 68.85546875 52 c 128,-1,16
 88.98046875 73 88.98046875 73 178.928710938 88.5 c 128,-1,17
 268.877929688 104 268.877929688 104 375.877929688 104 c 128,-1,18
 482.877929688 104 482.877929688 104 543.928710938 88.5 c 128,-1,19
 604.98046875 73 604.98046875 73 584.85546875 52 c 256,0,1
263.515625 67 m 257,20,-1
 418.938476562 66 l 257,21,22
 393.98046875 73 393.98046875 73 346.98046875 73 c 0,23,24
 301.557617188 74 301.557617188 74 263.515625 67 c 257,20,-1
EndSplineSet
EndChar

StartChar: f
Encoding: 102 102 70
Width: 512
VWidth: 0
Flags: W
LayerCount: 2
Fore
SplineSet
562.012695312 150 m 257,0,-1
 530.959960938 117 l 257,1,2
 504.846679688 122 504.846679688 122 463.846679688 122 c 0,3,4
 414.846679688 122 414.846679688 122 376.805664062 115 c 1,5,-1
 267.833007812 -1 l 257,6,-1
 100.833007812 -1 l 257,7,-1
 212.805664062 115 l 257,8,9
 252.620117188 132 252.620117188 132 328.893554688 142 c 128,-1,10
 405.166992188 152 405.166992188 152 492.166992188 152 c 0,11,12
 530.166992188 152 530.166992188 152 562.012695312 150 c 257,0,-1
102.299804688 102 m 257,13,-1
 461.299804688 102 l 257,14,-1
 432.979492188 72 l 257,15,-1
 73.9794921875 72 l 257,16,-1
 102.299804688 102 l 257,13,-1
EndSplineSet
EndChar

StartChar: g
Encoding: 103 103 71
Width: 620
VWidth: 0
Flags: W
LayerCount: 2
Fore
SplineSet
360.959960938 73 m 256,0,1
 347.959960938 73 347.959960938 73 335.959960938 73 c 1,2,-1
 336.959960938 73 l 257,3,4
 298.3828125 72 298.3828125 72 268.918945312 66 c 128,-1,5
 239.454101562 60 239.454101562 60 231.8359375 52 c 0,6,7
 224.216796875 44 224.216796875 44 243.041015625 38.5 c 128,-1,8
 261.866210938 33 261.866210938 33 296.7109375 31 c 1,9,-1
 296.7109375 31 l 257,10,11
 307.133789062 30 307.133789062 30 320.7109375 31 c 0,12,13
 332.7109375 31 332.7109375 31 344.7109375 31 c 1,14,-1
 344.7109375 31 l 257,15,16
 383.2890625 32 383.2890625 32 412.752929688 38 c 128,-1,17
 442.216796875 44 442.216796875 44 449.8359375 52 c 0,18,19
 457.454101562 60 457.454101562 60 438.629882812 65.5 c 128,-1,20
 419.805664062 71 419.805664062 71 384.959960938 73 c 1,21,-1
 383.959960938 73 l 257,22,23
 372.959960938 73 372.959960938 73 360.959960938 73 c 256,0,1
291.390625 1 m 256,24,25
 290.390625 1 l 256,26,27
 288.390625 1 288.390625 1 287.390625 1 c 256,28,29
 286.390625 1 286.390625 1 283.390625 1 c 0,30,31
 246.390625 1 246.390625 1 241.390625 1 c 0,32,33
 144.967773438 2 144.967773438 2 102.83984375 16.5 c 128,-1,34
 60.7109375 31 60.7109375 31 80.8359375 52 c 0,35,36
 99.3828125 72 99.3828125 72 183.04296875 87 c 128,-1,37
 266.703125 102 266.703125 102 369.280273438 103 c 0,38,39
 375.280273438 103 375.280273438 103 383.857421875 104 c 0,40,41
 385.857421875 104 385.857421875 104 387.857421875 104 c 256,42,43
 388.857421875 104 l 256,44,45
 389.857421875 104 389.857421875 104 391.857421875 104 c 0,46,47
 498.857421875 104 498.857421875 104 559.697265625 89 c 128,-1,48
 620.537109375 74 620.537109375 74 600.8359375 52 c 0,49,-1
 600.8359375 52 l 258,50,51
 600.8359375 52 l 256,52,53
 600.258789062 51 600.258789062 51 599.258789062 51 c 258,54,-1
 545.50390625 -4 l 257,55,56
 505.689453125 -21 505.689453125 -21 430.416015625 -31 c 128,-1,57
 355.142578125 -41 355.142578125 -41 268.142578125 -41 c 0,58,59
 97.142578125 -41 97.142578125 -41 65.296875 -39 c 1,60,-1
 96.349609375 -6 l 257,61,62
 106.194335938 -8 106.194335938 -8 183.829101562 -9.5 c 128,-1,63
 261.462890625 -11 261.462890625 -11 296.462890625 -11 c 0,64,65
 322.462890625 -11 322.462890625 -11 351.1171875 -9 c 128,-1,66
 379.772460938 -7 379.772460938 -7 398.081054688 -3 c 1,67,-1
 405.700195312 5 l 257,68,69
 350.813476562 0 350.813476562 0 294.390625 1 c 0,70,71
 292.390625 1 292.390625 1 291.390625 1 c 256,24,25
EndSplineSet
EndChar

StartChar: h
Encoding: 104 104 72
Width: 597
VWidth: 0
Flags: W
LayerCount: 2
Fore
SplineSet
150.166992188 154 m 257,0,-1
 319.166992188 154 l 257,1,-1
 270.145507812 102 l 257,2,3
 311.299804688 104 311.299804688 104 352.876953125 105 c 0,4,5
 439.876953125 105 439.876953125 105 497.315429688 94.5 c 128,-1,6
 554.752929688 84 554.752929688 84 562.9375 67 c 1,7,-1
 502.833007812 1 l 257,8,-1
 335.833007812 1 l 257,9,-1
 397.9375 67 l 257,10,11
 372.979492188 74 372.979492188 74 324.556640625 75 c 0,12,13
 276.556640625 75 276.556640625 75 238.515625 68 c 1,14,-1
 174.833007812 1 l 257,15,-1
 5.8330078125 1 l 257,16,-1
 150.166992188 154 l 257,0,-1
EndSplineSet
EndChar

StartChar: i
Encoding: 105 105 73
Width: 252
VWidth: 0
Flags: W
LayerCount: 2
Fore
SplineSet
101.43359375 102 m 257,0,-1
 253.43359375 102 l 257,1,-1
 157.543945312 0 l 257,2,-1
 5.5439453125 0 l 257,3,-1
 101.43359375 102 l 257,0,-1
150.456054688 154 m 257,4,-1
 302.456054688 154 l 257,5,-1
 276.290039062 126 l 257,6,-1
 124.290039062 126 l 257,7,-1
 150.456054688 154 l 257,4,-1
EndSplineSet
EndChar

StartChar: j
Encoding: 106 106 74
Width: 419
VWidth: 0
Flags: W
LayerCount: 2
Fore
SplineSet
-19.13671875 -39 m 257,0,-1
 12.4931640625 -5 l 257,1,2
 38.6064453125 -10 38.6064453125 -10 78.029296875 -11 c 0,3,4
 127.029296875 -11 127.029296875 -11 166.647460938 -3 c 1,5,-1
 266.846679688 103 l 257,6,-1
 433.846679688 103 l 257,7,-1
 330.647460938 -3 l 257,8,9
 290.833007812 -20 290.833007812 -20 213.770507812 -30.5 c 128,-1,10
 136.708007812 -41 136.708007812 -41 49.7080078125 -41 c 0,11,12
 12.7080078125 -41 12.7080078125 -41 -19.13671875 -39 c 257,0,-1
326.291992188 154 m 257,13,-1
 478.291992188 154 l 257,14,-1
 452.125976562 126 l 257,15,-1
 300.125976562 126 l 257,16,-1
 326.291992188 154 l 257,13,-1
EndSplineSet
EndChar

StartChar: k
Encoding: 107 107 75
Width: 753
VWidth: 0
Flags: W
LayerCount: 2
Fore
SplineSet
162.033203125 155 m 257,0,-1
 303.033203125 155 l 257,1,-1
 216.916992188 63 l 257,2,-1
 502.743164062 106 l 257,3,-1
 694.166015625 105 l 257,4,-1
 388.453125 57 l 257,5,-1
 603.966796875 -1 l 257,6,-1
 418.543945312 0 l 257,7,-1
 256.524414062 45 l 257,8,-1
 186.44140625 31 l 257,9,-1
 157.543945312 0 l 257,10,-1
 16.5439453125 0 l 257,11,-1
 162.033203125 155 l 257,0,-1
EndSplineSet
EndChar

StartChar: l
Encoding: 108 108 76
Width: 419
VWidth: 0
Flags: W
LayerCount: 2
Fore
SplineSet
326.366210938 1.2001953125 m 257,0,1
 290.671875 -0.599609375 290.671875 -0.599609375 253.671875 -0.599609375 c 0,2,3
 166.671875 -0.599609375 166.671875 -0.599609375 109.461914062 9.7998046875 c 128,-1,4
 52.251953125 20.2001953125 52.251953125 20.2001953125 43.8779296875 36.7998046875 c 257,5,-1
 149.505859375 152.200195312 l 257,6,-1
 316.505859375 152.200195312 l 257,7,-1
 208.065429688 37 l 1,8,9
 233.099609375 29.599609375 233.099609375 29.599609375 282.099609375 29.599609375 c 0,10,11
 322.099609375 29.599609375 322.099609375 29.599609375 357.994140625 34.7998046875 c 257,12,-1
 326.366210938 1.2001953125 l 257,0,1
EndSplineSet
EndChar

StartChar: m
Encoding: 109 109 77
Width: 924
VWidth: 0
Flags: W
LayerCount: 2
Fore
SplineSet
117.4453125 104 m 257,0,-1
 286.4453125 104 l 257,1,-1
 284.290039062 102 l 257,2,3
 325.4453125 104 325.4453125 104 367.022460938 105 c 0,4,5
 454.022460938 105 454.022460938 105 511.459960938 94.5 c 128,-1,6
 568.897460938 84 568.897460938 84 577.083007812 67 c 1,7,-1
 516.977539062 1 l 257,8,-1
 349.977539062 1 l 257,9,-1
 412.083007812 67 l 257,10,11
 387.124023438 74 387.124023438 74 338.702148438 75 c 0,12,13
 290.702148438 75 290.702148438 75 252.66015625 68 c 1,14,-1
 188.977539062 1 l 257,15,-1
 19.9775390625 1 l 257,16,-1
 117.4453125 104 l 257,0,-1
431.052734375 86 m 257,17,-1
 611.290039062 102 l 257,18,19
 652.4453125 104 652.4453125 104 694.022460938 105 c 0,20,21
 781.022460938 105 781.022460938 105 838.459960938 94.5 c 128,-1,22
 895.897460938 84 895.897460938 84 904.083007812 67 c 1,23,-1
 843.977539062 1 l 257,24,-1
 676.977539062 1 l 257,25,-1
 739.083007812 67 l 257,26,27
 714.124023438 74 714.124023438 74 665.702148438 75 c 0,28,29
 617.702148438 75 617.702148438 75 579.66015625 68 c 1,30,-1
 515.977539062 1 l 257,31,-1
 346.977539062 1 l 257,32,-1
 431.052734375 86 l 257,17,-1
EndSplineSet
EndChar

StartChar: n
Encoding: 110 110 78
Width: 597
VWidth: 0
Flags: W
LayerCount: 2
Fore
SplineSet
117.4453125 104 m 257,0,-1
 286.4453125 104 l 257,1,-1
 284.290039062 102 l 257,2,3
 325.4453125 104 325.4453125 104 367.022460938 105 c 0,4,5
 454.022460938 105 454.022460938 105 511.459960938 94.5 c 128,-1,6
 568.897460938 84 568.897460938 84 577.083007812 67 c 1,7,-1
 516.977539062 1 l 257,8,-1
 349.977539062 1 l 257,9,-1
 412.083007812 67 l 257,10,11
 387.124023438 74 387.124023438 74 338.702148438 75 c 0,12,13
 290.702148438 75 290.702148438 75 252.66015625 68 c 1,14,-1
 188.977539062 1 l 257,15,-1
 19.9775390625 1 l 257,16,-1
 117.4453125 104 l 257,0,-1
EndSplineSet
EndChar

StartChar: o
Encoding: 111 111 79
Width: 616
VWidth: 0
Flags: W
LayerCount: 2
Fore
SplineSet
279.266601562 1 m 260,0,1
 278.266601562 1 l 256,2,3
 276.266601562 1 276.266601562 1 275.266601562 1 c 256,4,5
 267.266601562 1 267.266601562 1 260.266601562 1 c 0,6,7
 159.84375 2 159.84375 2 105.00390625 17 c 128,-1,8
 50.1640625 32 50.1640625 32 68.7109375 52 c 0,9,10
 87.2587890625 72 87.2587890625 72 170.918945312 87 c 128,-1,11
 254.579101562 102 254.579101562 102 357.15625 103 c 0,12,13
 363.15625 103 363.15625 103 371.733398438 104 c 0,14,15
 373.733398438 104 373.733398438 104 375.733398438 104 c 256,16,17
 376.733398438 104 l 256,18,19
 377.733398438 104 377.733398438 104 379.733398438 104 c 0,20,21
 486.733398438 104 486.733398438 104 547.784179688 88.5 c 128,-1,22
 608.8359375 73 608.8359375 73 588.7109375 52 c 128,-1,23
 568.586914062 31 568.586914062 31 478.926757812 16 c 128,-1,24
 389.266601562 1 389.266601562 1 282.266601562 1 c 0,25,26
 280.266601562 1 280.266601562 1 279.266601562 1 c 260,0,1
348.8359375 73 m 260,27,28
 335.8359375 73 335.8359375 73 323.8359375 73 c 1,29,-1
 324.8359375 73 l 257,30,31
 286.258789062 72 286.258789062 72 256.793945312 66 c 128,-1,32
 227.330078125 60 227.330078125 60 219.7109375 52 c 0,33,34
 212.092773438 44 212.092773438 44 230.916992188 38.5 c 128,-1,35
 249.741210938 33 249.741210938 33 284.586914062 31 c 1,36,-1
 284.586914062 31 l 257,37,38
 295.009765625 30 295.009765625 30 308.586914062 31 c 0,39,40
 320.586914062 31 320.586914062 31 332.586914062 31 c 1,41,-1
 332.586914062 31 l 257,42,43
 371.1640625 32 371.1640625 32 400.62890625 38 c 128,-1,44
 430.092773438 44 430.092773438 44 437.7109375 52 c 0,45,46
 445.330078125 60 445.330078125 60 426.505859375 65.5 c 128,-1,47
 407.680664062 71 407.680664062 71 372.8359375 73 c 1,48,-1
 371.8359375 73 l 257,49,50
 360.8359375 73 360.8359375 73 348.8359375 73 c 260,27,28
EndSplineSet
EndChar

StartChar: p
Encoding: 112 112 80
Width: 512
VWidth: 0
Flags: W
LayerCount: 2
Fore
SplineSet
146.0078125 -40 m 257,0,-1
 -5.9921875 -40 l 257,1,-1
 127.9921875 102 l 257,2,-1
 279.9921875 102 l 258,3,4
 287.9921875 102 287.9921875 102 303.9921875 102 c 0,5,6
 410.9921875 102 410.9921875 102 472.33203125 87 c 128,-1,7
 533.670898438 72 533.670898438 72 513.758789062 50.5 c 128,-1,8
 493.845703125 29 493.845703125 29 404.184570312 14 c 128,-1,9
 314.524414062 -1 314.524414062 -1 207.524414062 -1 c 0,10,11
 191.524414062 -1 191.524414062 -1 183.524414062 -1 c 1,12,-1
 146.0078125 -40 l 257,0,-1
251.09375 71 m 257,13,-1
 212.422851562 30 l 257,14,15
 223.845703125 29 223.845703125 29 235.845703125 29 c 256,16,17
 280.845703125 29 280.845703125 29 317.59765625 35.5 c 128,-1,18
 354.350585938 42 354.350585938 42 362.546875 51 c 0,19,20
 370.743164062 60 370.743164062 60 345.70703125 66 c 128,-1,21
 320.670898438 72 320.670898438 72 275.670898438 72 c 0,22,23
 263.670898438 72 263.670898438 72 251.09375 71 c 257,13,-1
EndSplineSet
EndChar

StartChar: q
Encoding: 113 113 81
Width: 512
VWidth: 0
Flags: W
LayerCount: 2
Fore
SplineSet
276.0078125 -40 m 257,0,-1
 313.524414062 -1 l 257,1,2
 305.524414062 -1 305.524414062 -1 289.524414062 -1 c 0,3,4
 182.524414062 -1 182.524414062 -1 121.184570312 14 c 128,-1,5
 59.845703125 29 59.845703125 29 79.7587890625 50.5 c 128,-1,6
 99.6708984375 72 99.6708984375 72 189.33203125 87 c 128,-1,7
 278.9921875 102 278.9921875 102 385.9921875 102 c 0,8,9
 401.9921875 102 401.9921875 102 409.9921875 102 c 2,10,-1
 561.9921875 102 l 257,11,-1
 428.0078125 -40 l 257,12,-1
 276.0078125 -40 l 257,0,-1
381.09375 71 m 257,13,14
 369.670898438 72 369.670898438 72 357.670898438 72 c 256,15,16
 312.670898438 72 312.670898438 72 275.918945312 65.5 c 128,-1,17
 239.166015625 59 239.166015625 59 230.546875 51 c 0,18,19
 222.350585938 42 222.350585938 42 247.59765625 35.5 c 128,-1,20
 272.845703125 29 272.845703125 29 317.845703125 29 c 0,21,22
 329.845703125 29 329.845703125 29 342.422851562 30 c 257,23,-1
 381.09375 71 l 257,13,14
EndSplineSet
EndChar

StartChar: r
Encoding: 114 114 82
Width: 587
VWidth: 0
Flags: W
LayerCount: 2
Fore
SplineSet
117.4453125 104 m 257,0,-1
 286.4453125 104 l 257,1,-1
 284.290039062 102 l 257,2,3
 325.4453125 104 325.4453125 104 367.022460938 105 c 0,4,5
 447.022460938 105 447.022460938 105 501.959960938 94.5 c 128,-1,6
 556.897460938 84 556.897460938 84 571.237304688 69 c 1,7,-1
 406.237304688 69 l 257,8,-1
 406.237304688 69 l 257,9,10
 381.702148438 75 381.702148438 75 338.702148438 75 c 0,11,12
 290.702148438 75 290.702148438 75 252.66015625 68 c 1,13,-1
 188.977539062 1 l 257,14,-1
 19.9775390625 1 l 257,15,-1
 117.4453125 104 l 257,0,-1
EndSplineSet
EndChar

StartChar: s
Encoding: 115 115 83
Width: 508
VWidth: 0
Flags: W
LayerCount: 2
Fore
SplineSet
47.7509765625 9 m 257,0,-1
 136.030273438 32 l 257,1,2
 141.453125 31 141.453125 31 155.297851562 29 c 0,3,4
 192.56640625 26 192.56640625 26 225.143554688 27 c 128,-1,5
 257.720703125 28 257.720703125 28 281.030273438 32 c 0,6,7
 308.916992188 37 308.916992188 37 267.649414062 40 c 0,8,9
 256.2265625 41 256.2265625 41 214.803710938 42 c 257,10,11
 153.690429688 47 153.690429688 47 120.732421875 54 c 128,-1,12
 87.7734375 61 87.7734375 61 87.1806640625 69.5 c 128,-1,13
 86.5888671875 78 86.5888671875 78 132.784179688 87 c 0,14,15
 190.135742188 98 190.135742188 98 293.079101562 100.5 c 128,-1,16
 396.022460938 103 396.022460938 103 483.403320312 95 c 0,17,18
 500.249023438 93 500.249023438 93 502.670898438 92 c 1,19,-1
 411.66015625 66 l 257,20,21
 399.815429688 68 399.815429688 68 392.392578125 69 c 0,22,23
 355.124023438 72 355.124023438 72 333.546875 71 c 128,-1,24
 311.969726562 70 311.969726562 70 287.66015625 66 c 0,25,26
 258.7734375 61 258.7734375 61 261.619140625 59 c 128,-1,27
 264.463867188 57 264.463867188 57 309.309570312 55 c 1,28,29
 346.577148438 52 346.577148438 52 372.345703125 49 c 128,-1,30
 398.11328125 46 398.11328125 46 420.803710938 42 c 128,-1,31
 443.494140625 38 443.494140625 38 451.184570312 34 c 128,-1,32
 458.875976562 30 458.875976562 30 451.489257812 25 c 128,-1,33
 444.102539062 20 444.102539062 20 417.215820312 15 c 0,34,35
 359.864257812 4 359.864257812 4 257.920898438 1.5 c 128,-1,36
 155.977539062 -1 155.977539062 -1 67.5966796875 7 c 0,37,38
 60.5966796875 7 60.5966796875 7 47.7509765625 9 c 257,0,-1
EndSplineSet
EndChar

StartChar: t
Encoding: 116 116 84
Width: 514
VWidth: 0
Flags: W
LayerCount: 2
Fore
SplineSet
420.987304688 1 m 257,0,1
 384.833007812 -1 384.833007812 -1 348.833007812 -1 c 0,2,3
 261.833007812 -1 261.833007812 -1 204.39453125 9.5 c 128,-1,4
 146.95703125 20 146.95703125 20 138.772460938 37 c 1,5,-1
 172.556640625 73 l 257,6,-1
 74.556640625 73 l 257,7,-1
 103.876953125 103 l 257,8,-1
 199.876953125 103 l 257,9,-1
 244.166992188 152 l 257,10,-1
 411.166992188 152 l 257,11,-1
 365.876953125 103 l 257,12,-1
 462.876953125 103 l 257,13,-1
 433.556640625 73 l 257,14,-1
 336.556640625 73 l 257,15,-1
 302.772460938 37 l 257,16,17
 327.73046875 30 327.73046875 30 377.73046875 30 c 0,18,19
 417.73046875 30 417.73046875 30 453.6171875 35 c 1,20,-1
 420.987304688 1 l 257,0,1
EndSplineSet
EndChar

StartChar: u
Encoding: 117 117 85
Width: 598
VWidth: 0
Flags: W
LayerCount: 2
Fore
SplineSet
519.5546875 2 m 257,0,-1
 350.5546875 2 l 257,1,-1
 351.709960938 4 l 257,2,3
 310.5546875 2 310.5546875 2 268.977539062 1 c 0,4,5
 181.977539062 1 181.977539062 1 125.040039062 11.5 c 128,-1,6
 68.1025390625 22 68.1025390625 22 59.9169921875 39 c 1,7,-1
 119.022460938 105 l 257,8,-1
 286.022460938 105 l 257,9,-1
 223.916992188 39 l 257,10,11
 248.875976562 32 248.875976562 32 297.297851562 31 c 0,12,13
 345.297851562 31 345.297851562 31 384.33984375 38 c 1,14,-1
 447.022460938 105 l 257,15,-1
 616.022460938 105 l 257,16,-1
 519.5546875 2 l 257,0,-1
EndSplineSet
EndChar

StartChar: v
Encoding: 118 118 86
Width: 652
VWidth: 0
Flags: W
LayerCount: 2
Fore
SplineSet
116.4453125 102 m 257,0,-1
 268.4453125 102 l 257,1,-1
 323.297851562 29 l 257,2,-1
 516.4453125 102 l 257,3,-1
 668.4453125 102 l 257,4,-1
 372.5546875 0 l 257,5,-1
 220.5546875 0 l 257,6,-1
 116.4453125 102 l 257,0,-1
EndSplineSet
EndChar

StartChar: w
Encoding: 119 119 87
Width: 1044
VWidth: 0
Flags: W
LayerCount: 2
Fore
SplineSet
512.4453125 102 m 257,0,-1
 664.4453125 102 l 257,1,-1
 715.297851562 29 l 257,2,-1
 908.4453125 102 l 257,3,-1
 1060.4453125 102 l 257,4,-1
 764.5546875 0 l 257,5,-1
 616.5546875 0 l 257,6,-1
 551.927734375 63 l 257,7,-1
 368.5546875 0 l 257,8,-1
 220.5546875 0 l 257,9,-1
 116.4453125 102 l 257,10,-1
 264.4453125 102 l 257,11,-1
 319.297851562 29 l 257,12,-1
 512.4453125 102 l 257,0,-1
EndSplineSet
EndChar

StartChar: x
Encoding: 120 120 88
Width: 724
VWidth: 0
Flags: W
LayerCount: 2
Fore
SplineSet
116.733398438 103 m 257,0,-1
 302.15625 102 l 257,1,-1
 403.8359375 72 l 257,2,-1
 564.15625 102 l 257,3,-1
 739.15625 102 l 257,4,-1
 471.2890625 52 l 257,5,-1
 644.266601562 0 l 257,6,-1
 469.266601562 0 l 257,7,-1
 362.1640625 31 l 257,8,-1
 199.266601562 0 l 257,9,-1
 21.2666015625 0 l 257,10,-1
 292.7109375 51 l 257,11,-1
 116.733398438 103 l 257,0,-1
EndSplineSet
EndChar

StartChar: y
Encoding: 121 121 89
Width: 652
VWidth: 0
Flags: W
LayerCount: 2
Fore
SplineSet
127.9921875 102 m 257,0,-1
 298.9921875 102 l 257,1,-1
 353.845703125 29 l 257,2,-1
 527.9921875 102 l 257,3,-1
 713.569335938 103 l 257,4,-1
 300.0078125 -40 l 257,5,-1
 151.430664062 -41 l 257,6,-1
 259.102539062 0 l 257,7,-1
 127.9921875 102 l 257,0,-1
EndSplineSet
EndChar

StartChar: z
Encoding: 122 122 90
Width: 512
VWidth: 0
Flags: W
LayerCount: 2
Fore
SplineSet
21.5546875 2 m 257,0,-1
 49.8759765625 32 l 257,1,-1
 331.546875 73 l 257,2,-1
 88.546875 73 l 257,3,-1
 117.4453125 104 l 257,4,-1
 570.4453125 104 l 257,5,-1
 541.546875 73 l 257,6,-1
 300.875976562 32 l 257,7,-1
 502.875976562 32 l 257,8,-1
 474.5546875 2 l 257,9,-1
 21.5546875 2 l 257,0,-1
EndSplineSet
EndChar

StartChar: braceleft
Encoding: 123 123 91
Width: 419
VWidth: 0
Flags: W
LayerCount: 2
Fore
SplineSet
393.904296875 -17 m 1,0,1
 377.327148438 -18 377.327148438 -18 355.327148438 -18 c 0,2,3
 311.327148438 -18 311.327148438 -18 284.446289062 -10 c 128,-1,4
 257.564453125 -2 257.564453125 -2 258.647460938 12 c 1,5,-1
 290.27734375 46 l 1,6,-1
 205.2890625 72 l 1,7,-1
 337.72265625 97 l 1,8,-1
 371.352539062 131 l 1,9,10
 395.857421875 144 395.857421875 144 438.265625 152.5 c 128,-1,11
 480.672851562 161 480.672851562 161 524.672851562 161 c 0,12,13
 546.672851562 161 546.672851562 161 560.095703125 160 c 1,14,-1
 534.506835938 133 l 1,15,16
 522.81640625 137 522.81640625 137 501.81640625 137 c 0,17,18
 477.81640625 137 477.81640625 137 455.352539062 131 c 1,19,-1
 420.990234375 94 l 1,20,-1
 320.443359375 74 l 1,21,-1
 375.27734375 46 l 1,22,-1
 342.647460938 12 l 1,23,24
 353.18359375 6 353.18359375 6 378.18359375 6 c 0,25,26
 399.18359375 6 399.18359375 6 419.493164062 10 c 1,27,-1
 393.904296875 -17 l 1,0,1
EndSplineSet
EndChar

StartChar: bar
Encoding: 124 124 92
Width: 252
VWidth: 0
Flags: W
LayerCount: 2
Fore
SplineSet
184.002929688 174 m 257,0,-1
 306.002929688 174 l 257,1,-1
 123.997070312 -20 l 257,2,-1
 1.9970703125 -20 l 257,3,-1
 184.002929688 174 l 257,0,-1
EndSplineSet
EndChar

StartChar: braceright
Encoding: 125 125 93
Width: 419
VWidth: 0
Flags: W
LayerCount: 2
Fore
SplineSet
121.904296875 -17 m 1,0,-1
 147.493164062 10 l 1,1,2
 159.18359375 6 159.18359375 6 180.18359375 6 c 0,3,4
 205.18359375 6 205.18359375 6 226.647460938 12 c 1,5,-1
 259.27734375 46 l 1,6,-1
 366.443359375 74 l 1,7,-1
 302.990234375 94 l 1,8,-1
 339.352539062 131 l 1,9,10
 327.81640625 137 327.81640625 137 303.81640625 137 c 0,11,12
 282.81640625 137 282.81640625 137 262.506835938 133 c 1,13,-1
 288.095703125 160 l 1,14,15
 304.672851562 161 304.672851562 161 326.672851562 161 c 0,16,17
 370.672851562 161 370.672851562 161 396.765625 152.5 c 128,-1,18
 422.857421875 144 422.857421875 144 423.352539062 131 c 1,19,-1
 391.72265625 97 l 1,20,-1
 477.2890625 72 l 1,21,-1
 344.27734375 46 l 1,22,-1
 310.647460938 12 l 1,23,24
 286.142578125 -1 286.142578125 -1 243.734375 -9.5 c 128,-1,25
 201.327148438 -18 201.327148438 -18 157.327148438 -18 c 0,26,27
 135.327148438 -18 135.327148438 -18 121.904296875 -17 c 1,0,-1
EndSplineSet
EndChar

StartChar: asciitilde
Encoding: 126 126 94
Width: 644
VWidth: 0
Flags: W
LayerCount: 2
Fore
SplineSet
604.279296875 115 m 257,0,-1
 575.958984375 85 l 258,1,2
 574.380859375 84 574.380859375 84 555.360351562 80.5 c 128,-1,3
 536.33984375 77 536.33984375 77 500.530273438 73 c 128,-1,4
 464.720703125 69 464.720703125 69 432.720703125 69 c 2,5,-1
 332.720703125 69 l 2,6,7
 300.720703125 69 300.720703125 69 261.396484375 74.5 c 128,-1,8
 222.072265625 80 222.072265625 80 190.072265625 80 c 0,9,10
 167.072265625 80 167.072265625 80 134.83984375 77 c 128,-1,11
 102.607421875 74 102.607421875 74 82.453125 72 c 2,12,-1
 61.720703125 69 l 1,13,-1
 90.041015625 99 l 257,14,15
 164.392578125 110 164.392578125 110 214.392578125 110 c 0,16,17
 247.392578125 110 247.392578125 110 289.216796875 104.5 c 128,-1,18
 331.041015625 99 331.041015625 99 364.041015625 99 c 0,19,20
 409.041015625 99 409.041015625 99 453.041015625 99 c 0,21,22
 484.041015625 99 484.041015625 99 521.850585938 103 c 128,-1,23
 559.66015625 107 559.66015625 107 581.969726562 111 c 2,24,-1
 604.279296875 115 l 257,0,-1
EndSplineSet
EndChar

StartChar: .notdef
Encoding: 0 0 95
Width: 512
VWidth: 1000
Flags: W
LayerCount: 2
Fore
SplineSet
512 800 m 2,0,1
 512 809 512 809 505.5 815.5 c 128,-1,2
 499 822 499 822 490 822 c 2,3,-1
 22 822 l 2,4,5
 13 822 13 822 6.5 815.5 c 128,-1,6
 0 809 0 809 0 800 c 2,7,-1
 -0 0 l 2,8,9
 0 -9 0 -9 6.5 -15.5 c 128,-1,10
 13 -22 13 -22 22 -22 c 2,11,-1
 490 -22 l 2,12,13
 499 -22 499 -22 505.5 -15.5 c 128,-1,14
 512 -9 512 -9 512 0 c 2,15,-1
 512 800 l 2,0,1
-5 800 m 2,16,17
 -5 811 -5 811 3 819 c 128,-1,18
 11 827 11 827 22 827 c 2,19,-1
 490 827 l 2,20,21
 501 827 501 827 509 819 c 128,-1,22
 517 811 517 811 517 800 c 2,23,-1
 517 -0 l 2,24,25
 517 -11 517 -11 509 -19 c 128,-1,26
 501 -27 501 -27 490 -27 c 2,27,-1
 22 -27 l 2,28,29
 11 -27 11 -27 3 -19 c 128,-1,30
 -5 -11 -5 -11 -5 0 c 2,31,-1
 -5 800 l 2,16,17
463 773 m 1,32,-1
 49 773 l 1,33,-1
 49 27 l 1,34,-1
 463 27 l 1,35,-1
 463 773 l 1,32,-1
468 775 m 2,36,-1
 468 25 l 2,37,38
 468 22 468 22 465 22 c 2,39,-1
 47 22 l 2,40,41
 44 22 44 22 44 25 c 2,42,-1
 44 775 l 2,43,44
 44 778 44 778 47 778 c 2,45,-1
 465 778 l 2,46,47
 468 778 468 778 468 775 c 2,36,-1
356 508 m 0,48,49
 356 504 356 504 353.5 485.5 c 128,-1,50
 351 467 351 467 343.5 444.5 c 128,-1,51
 336 422 336 422 326 422 c 2,52,-1
 246 422 l 2,53,54
 237 422 237 422 230.5 415.5 c 128,-1,55
 224 409 224 409 224 400 c 2,56,-1
 224 212 l 2,57,58
 224 203 224 203 230.5 196.5 c 128,-1,59
 237 190 237 190 246 190 c 128,-1,60
 255 190 255 190 261.5 196.5 c 128,-1,61
 268 203 268 203 268 212 c 2,62,-1
 268 375 l 2,63,64
 268 378 268 378 271 378 c 2,65,-1
 340 378 l 2,66,67
 368 378 368 378 384.5 428.5 c 128,-1,68
 401 479 401 479 401 508 c 0,69,70
 401 570 401 570 359 615 c 128,-1,71
 317 660 317 660 258 660 c 0,72,73
 229 660 229 660 189.5 644.5 c 128,-1,74
 150 629 150 629 150 604 c 2,75,-1
 150 570 l 2,76,77
 150 561 150 561 156.5 554.5 c 128,-1,78
 163 548 163 548 172 548 c 128,-1,79
 181 548 181 548 187.5 554.5 c 128,-1,80
 194 561 194 561 194 570 c 2,81,-1
 194 591 l 2,82,83
 194 601 194 601 220 608.5 c 128,-1,84
 246 616 246 616 258 616 c 0,85,86
 297 616 297 616 326.5 583 c 128,-1,87
 356 550 356 550 356 508 c 0,48,49
250 174 m 128,-1,89
 241 174 241 174 234.5 167.5 c 128,-1,90
 228 161 228 161 228 152 c 2,91,-1
 228 108 l 2,92,93
 228 99 228 99 234.5 92.5 c 128,-1,94
 241 86 241 86 250 86 c 128,-1,95
 259 86 259 86 265.5 92.5 c 128,-1,96
 272 99 272 99 272 108 c 2,97,-1
 272 152 l 2,98,99
 272 161 272 161 265.5 167.5 c 128,-1,88
 259 174 259 174 250 174 c 128,-1,89
250 81 m 128,-1,101
 239 81 239 81 231 89 c 128,-1,102
 223 97 223 97 223 108 c 2,103,-1
 223 152 l 2,104,105
 223 163 223 163 231 171 c 128,-1,106
 239 179 239 179 250 179 c 128,-1,107
 261 179 261 179 269 171 c 128,-1,108
 277 163 277 163 277 152 c 2,109,-1
 277 108 l 2,110,111
 277 97 277 97 269 89 c 128,-1,100
 261 81 261 81 250 81 c 128,-1,101
258 611 m 1,112,113
 230 611 230 611 199 590 c 1,114,-1
 199 570 l 2,115,116
 199 559 199 559 191 551 c 128,-1,117
 183 543 183 543 172 543 c 128,-1,118
 161 543 161 543 153 551 c 128,-1,119
 145 559 145 559 145 570 c 2,120,-1
 145 604 l 2,121,122
 145 631 145 631 185.5 648 c 128,-1,123
 226 665 226 665 258 665 c 0,124,125
 319 665 319 665 362.5 619 c 128,-1,126
 406 573 406 573 406 508 c 0,127,128
 406 477 406 477 388 425 c 128,-1,129
 370 373 370 373 340 373 c 2,130,-1
 273 373 l 1,131,-1
 273 212 l 2,132,133
 273 201 273 201 265 193 c 128,-1,134
 257 185 257 185 246 185 c 128,-1,135
 235 185 235 185 227 193 c 128,-1,136
 219 201 219 201 219 212 c 2,137,-1
 219 400 l 2,138,139
 219 411 219 411 227 419 c 128,-1,140
 235 427 235 427 246 427 c 2,141,-1
 325 427 l 1,142,143
 351 471 351 471 351 508 c 0,144,145
 351 531 351 531 343.5 548.5 c 128,-1,146
 336 566 336 566 319 578 c 128,-1,147
 302 590 302 590 291 596 c 128,-1,148
 280 602 280 602 258 611 c 1,112,113
EndSplineSet
EndChar

StartChar: at
Encoding: 64 64 96
Width: 864
VWidth: 0
Flags: W
LayerCount: 2
Fore
SplineSet
511.671875 33 m 1025,0,-1
521.116210938 84 m 257,1,2
 517.116210938 84 517.116210938 84 509.116210938 84 c 0,3,4
 486.116210938 84 486.116210938 84 467.384765625 81 c 128,-1,5
 448.65234375 78 448.65234375 78 444.5546875 73.5 c 128,-1,6
 440.456054688 69 440.456054688 69 453.224609375 66 c 128,-1,7
 465.9921875 63 465.9921875 63 488.9921875 63 c 0,8,9
 492.9921875 63 492.9921875 63 500.9921875 63 c 1,10,-1
 521.116210938 84 l 257,1,2
561.754882812 47 m 1025,11,-1
487.176757812 46 m 1,12,-1
 474.33203125 48 l 1,13,14
 420.33203125 48 420.33203125 48 389.662109375 55.5 c 128,-1,15
 358.9921875 63 358.9921875 63 369.342773438 74 c 128,-1,16
 379.694335938 85 379.694335938 85 423.946289062 91.5 c 128,-1,17
 468.19921875 98 468.19921875 98 522.19921875 98 c 2,18,-1
 534.19921875 98 l 1,19,-1
 610.19921875 98 l 1,20,-1
 584.569335938 64 l 2,21,22
 584.415039062 62 584.415039062 62 595.682617188 59 c 128,-1,23
 606.951171875 56 606.951171875 56 621.584960938 54.5 c 128,-1,24
 636.21875 53 636.21875 53 653.162109375 55.5 c 128,-1,25
 670.10546875 58 670.10546875 58 680.146484375 65 c 0,26,-1
 679.512695312 66.5 l 0,27,-1
 678.87890625 68 l 0,28,29
 698.229492188 79 698.229492188 79 691.791992188 89.5 c 128,-1,30
 685.354492188 100 685.354492188 100 652.97265625 108 c 0,31,32
 597.478515625 121 597.478515625 121 501.978515625 121 c 128,-1,33
 406.478515625 121 406.478515625 121 325.395507812 107 c 0,34,35
 243.3125 93 243.3125 93 224.342773438 74 c 128,-1,36
 205.373046875 55 205.373046875 55 259.868164062 42 c 0,37,38
 302.094726562 32 302.094726562 32 372.151367188 29.5 c 128,-1,39
 442.208007812 27 442.208007812 27 511.671875 33 c 0,40,41
 523.249023438 34 523.249023438 34 546.073242188 28.5 c 128,-1,42
 568.8984375 23 568.8984375 23 586.43359375 17 c 2,43,-1
 603.969726562 11 l 1,44,45
 476.309570312 -4 476.309570312 -4 341.46484375 -2 c 128,-1,46
 206.619140625 0 206.619140625 0 128.166015625 20 c 0,47,48
 36.8681640625 42 36.8681640625 42 69.8427734375 74 c 128,-1,49
 102.818359375 106 102.818359375 106 239.09765625 129 c 128,-1,50
 375.375976562 152 375.375976562 152 536.665039062 152.5 c 128,-1,51
 697.954101562 153 697.954101562 153 789.251953125 131 c 0,52,53
 857.4375 114 857.4375 114 855.291992188 89.5 c 128,-1,54
 853.146484375 65 853.146484375 65 785.022460938 44 c 1,55,56
 760.290039062 41 760.290039062 41 736.924804688 39.5 c 128,-1,57
 713.55859375 38 713.55859375 38 689.05859375 38 c 128,-1,58
 664.55859375 38 664.55859375 38 647.26953125 37.5 c 128,-1,59
 629.981445312 37 629.981445312 37 604.346679688 38.5 c 128,-1,60
 578.712890625 40 578.712890625 40 566.501953125 40.5 c 128,-1,61
 554.290039062 41 554.290039062 41 524.9453125 43 c 128,-1,62
 495.599609375 45 495.599609375 45 487.176757812 46 c 1,12,-1
EndSplineSet
EndChar

StartChar: uniE366
Encoding: 58214 58214 97
Width: 1024
LayerCount: 2
Fore
SplineSet
302 132 m 128,-1,1
 302 142 302 142 309 142 c 128,-1,2
 316 142 316 142 316 132 c 128,-1,3
 316 122 316 122 309 122 c 128,-1,0
 302 122 302 122 302 132 c 128,-1,1
617 63 m 128,-1,5
 617 80 617 80 623 80 c 128,-1,6
 629 80 629 80 629 63 c 128,-1,7
 629 46 629 46 623 46 c 128,-1,4
 617 46 617 46 617 63 c 128,-1,5
248 -19 m 128,-1,9
 248 -1 248 -1 255 -1 c 128,-1,10
 262 -1 262 -1 262 -19 c 128,-1,11
 262 -37 262 -37 255 -37 c 128,-1,8
 248 -37 248 -37 248 -19 c 128,-1,9
822 20 m 1025,12,-1
EndSplineSet
EndChar

StartChar: uniE367
Encoding: 58215 58215 98
Width: 1024
LayerCount: 2
Back
SplineSet
470.5 881.509765625 m 6
 470.5 883.580078125 472.180664062 885.259765625 474.25 885.259765625 c 4
 476.319335938 885.259765625 478 883.580078125 478 881.509765625 c 6
 478 270.64453125 l 5
 495.372070312 244.5859375 l 6
 495.66015625 244.155273438 495.860351562 243.661132812 495.94921875 243.129882812 c 6
 504.94921875 189.129882812 l 6
 504.982421875 188.928710938 505 188.720703125 505 188.509765625 c 4
 505 186.440429688 503.319335938 184.759765625 501.25 184.759765625 c 4
 499.391601562 184.759765625 497.846679688 186.115234375 497.55078125 187.889648438 c 6
 488.682617188 241.1015625 l 5
 471.127929688 267.43359375 l 6
 470.731445312 268.028320312 470.5 268.7421875 470.5 269.509765625 c 6
 470.5 881.509765625 l 6
37.75 176.450195312 m 1053
37.75 176.450195312 m 29
 897.25 176.450195312 l 29
 474.25 899.509765625 l 29
 37.75 176.450195312 l 29
EndSplineSet
Fore
SplineSet
-11 143 m 128,-1,1
 -11 150 -11 150 131 156 c 128,-1,2
 273 162 273 162 472.5 161.5 c 0,3,4
 671 162 671 162 813 156 c 128,-1,5
 955 150 955 150 955 143 c 128,-1,6
 955 136 955 136 813 130 c 128,-1,7
 671 124 671 124 471.5 124.5 c 0,8,9
 273 124 273 124 131 130 c 128,-1,0
 -11 136 -11 136 -11 143 c 128,-1,1
EndSplineSet
LCarets2: 5 0 0 0 0 0
EndChar

StartChar: uniE368
Encoding: 58216 58216 99
Width: 1024
Flags: W
LayerCount: 2
Fore
SplineSet
330 519 m 128,-1,1
 330 559 330 559 358 587 c 128,-1,2
 386 615 386 615 426 615 c 128,-1,3
 466 615 466 615 494 587 c 128,-1,4
 522 559 522 559 522 519 c 128,-1,5
 522 479 522 479 494 451 c 128,-1,6
 466 423 466 423 426 423 c 128,-1,7
 386 423 386 423 358 451 c 128,-1,0
 330 479 330 479 330 519 c 128,-1,1
528 509 m 128,-1,9
 528 549 528 549 556 577 c 128,-1,10
 584 605 584 605 624 605 c 128,-1,11
 664 605 664 605 692 577 c 128,-1,12
 720 549 720 549 720 509 c 128,-1,13
 720 469 720 469 692 441 c 128,-1,14
 664 413 664 413 624 413 c 128,-1,15
 584 413 584 413 556 441 c 128,-1,8
 528 469 528 469 528 509 c 128,-1,9
644 342 m 128,-1,17
 644 382 644 382 672 410 c 128,-1,18
 700 438 700 438 740 438 c 128,-1,19
 780 438 780 438 808 410 c 128,-1,20
 836 382 836 382 836 342 c 128,-1,21
 836 302 836 302 808 274 c 128,-1,22
 780 246 780 246 740 246 c 128,-1,23
 700 246 700 246 672 274 c 128,-1,16
 644 302 644 302 644 342 c 128,-1,17
441 328 m 128,-1,25
 441 368 441 368 469 396 c 128,-1,26
 497 424 497 424 537 424 c 128,-1,27
 577 424 577 424 605 396 c 128,-1,28
 633 368 633 368 633 328 c 128,-1,29
 633 288 633 288 605 260 c 128,-1,30
 577 232 577 232 537 232 c 128,-1,31
 497 232 497 232 469 260 c 128,-1,24
 441 288 441 288 441 328 c 128,-1,25
245 342 m 128,-1,33
 245 382 245 382 273 410 c 128,-1,34
 301 438 301 438 341 438 c 128,-1,35
 381 438 381 438 409 410 c 128,-1,36
 437 382 437 382 437 342 c 128,-1,37
 437 302 437 302 409 274 c 128,-1,38
 381 246 381 246 341 246 c 128,-1,39
 301 246 301 246 273 274 c 128,-1,32
 245 302 245 302 245 342 c 128,-1,33
790 277 m 1,40,41
 790 202 790 202 709 149 c 128,-1,42
 628 96 628 96 514 96 c 0,43,44
 399 96 399 96 309.5 150.5 c 128,-1,45
 220 205 220 205 220 279 c 1,46,47
 220 257 220 257 303.5 242 c 128,-1,48
 387 227 387 227 505 227 c 0,49,50
 624 227 624 227 707 241.5 c 128,-1,51
 790 256 790 256 790 277 c 1,40,41
EndSplineSet
EndChar

StartChar: uniE369
Encoding: 58217 58217 100
Width: 1087
Flags: W
LayerCount: 2
Back
SplineSet
616.8671875 238.200195312 m 0
 616.8671875 284.735351562 651.193359375 322.599609375 693.267578125 322.599609375 c 0
 735.341796875 322.599609375 769.66796875 284.735351562 769.66796875 238.200195312 c 0
 769.66796875 191.665039062 735.341796875 153.799804688 693.267578125 153.799804688 c 0
 651.193359375 153.799804688 616.8671875 191.665039062 616.8671875 238.200195312 c 0
620.8671875 238.200195312 m 0
 620.8671875 193.53515625 653.741210938 157.799804688 693.267578125 157.799804688 c 0
 732.79296875 157.799804688 765.66796875 193.53515625 765.66796875 238.200195312 c 0
 765.66796875 282.864257812 732.79296875 318.599609375 693.267578125 318.599609375 c 0
 653.741210938 318.599609375 620.8671875 282.864257812 620.8671875 238.200195312 c 0
364.8671875 242.967773438 m 0
 364.8671875 307.276367188 417.758789062 360.16796875 482.067382812 360.16796875 c 0
 546.375976562 360.16796875 599.267578125 307.276367188 599.267578125 242.967773438 c 0
 599.267578125 178.659179688 546.375976562 125.767578125 482.067382812 125.767578125 c 0
 417.758789062 125.767578125 364.8671875 178.659179688 364.8671875 242.967773438 c 0
368.8671875 242.967773438 m 0
 368.8671875 180.876953125 419.975585938 129.767578125 482.067382812 129.767578125 c 0
 544.159179688 129.767578125 595.267578125 180.876953125 595.267578125 242.967773438 c 0
 595.267578125 305.059570312 544.159179688 356.16796875 482.067382812 356.16796875 c 0
 419.975585938 356.16796875 368.8671875 305.059570312 368.8671875 242.967773438 c 0
217.673828125 405 m 1
 218.749023438 221.423828125 367.837890625 73 551.66796875 73 c 0
 735.497070312 73 884.5859375 221.423828125 885.662109375 405 c 1
 217.673828125 405 l 1
546.8671875 753 m 0
 639.885742188 753 724.116210938 715.4453125 785.2265625 654.666992188 c 0
 785.249023438 654.645507812 785.270507812 654.623046875 785.291015625 654.599609375 c 2
 1078.06738281 654.599609375 l 2
 1078.328125 654.599609375 1079.72851562 655.583007812 1081.19042969 658.688476562 c 0
 1083.40039062 663.384765625 1084.51757812 668.8515625 1086.03613281 673.416992188 c 0
 1086.3125 674.24609375 1086.3515625 675.600585938 1088.32910156 675.600585938 c 0
 1089.9453125 675.600585938 1090.49511719 674.23046875 1090.49511719 673.272460938 c 0
 1090.49511719 673.053710938 1090.46777344 672.848632812 1090.46777344 672.599609375 c 2
 1090.46777344 419.799804688 l 2
 1090.46777344 412.26953125 1083.99804688 405.799804688 1076.46777344 405.799804688 c 2
 889.665039062 405.799804688 l 1
 889.018554688 219.649414062 737.970703125 69 551.66796875 69 c 0
 365.364257812 69 214.31640625 219.649414062 213.669921875 405.799804688 c 1
 14.0673828125 405.799804688 l 2
 6.537109375 405.799804688 0.0673828125 412.26953125 0.0673828125 419.799804688 c 2
 0.0673828125 672.599609375 l 1
 0.0673828125 672.599609375 0 672.899414062 0 673.309570312 c 0
 0 674.197265625 0.3154296875 675.600585938 2.3095703125 675.600585938 c 0
 4.5712890625 675.600585938 4.783203125 673.66015625 4.951171875 673.330078125 c 0
 7.9248046875 667.498046875 13.2373046875 654.599609375 15.66796875 654.599609375 c 2
 315.64453125 654.599609375 l 1
 315.62890625 654.599609375 315.62109375 654.600585938 315.62109375 654.600585938 c 0
 314.5390625 654.625 313.66796875 655.51171875 313.66796875 656.599609375 c 0
 313.66796875 657.166015625 313.90234375 657.676757812 314.280273438 658.041015625 c 0
 375.030273438 716.538085938 455.813476562 753 546.8671875 753 c 0
779.040039062 655.1328125 m 1
 718.9453125 713.24609375 637.091796875 749 546.8671875 749 c 0
 458.654296875 749 380.2109375 714.376953125 320.5625 658.4921875 c 1
 344.756835938 657.963867188 455.83984375 655.624023438 571.188476562 654.599609375 c 2
 749.962890625 654.599609375 l 2
 760.15234375 654.7421875 769.87890625 654.918945312 779.040039062 655.1328125 c 1
1086.46777344 661.053710938 m 1
 1085.0625 657.133789062 1082.82226562 650.599609375 1078.06738281 650.599609375 c 2
 749.995117188 650.599609375 l 2
 725.669921875 650.260742188 698.715820312 650.1171875 670.489257812 650.1171875 c 0
 638.360351562 650.1171875 604.583007812 650.303710938 571.165039062 650.599609375 c 2
 15.66796875 650.599609375 l 2
 10.2841796875 650.599609375 6.53515625 659.467773438 4.0673828125 665.404296875 c 1
 4.0673828125 419.799804688 l 2
 4.0673828125 414.530273438 8.7978515625 409.799804688 14.0673828125 409.799804688 c 2
 1076.46777344 409.799804688 l 2
 1081.73730469 409.799804688 1086.46777344 414.530273438 1086.46777344 419.799804688 c 2
 1086.46777344 661.053710938 l 1
EndSplineSet
Fore
SplineSet
930 423 m 1025,0,-1
622 237 m 0,1,2
 621 273 621 273 645 297 c 128,-1,3
 669 321 669 321 703 321 c 128,-1,4
 737 321 737 321 761 297 c 128,-1,5
 785 273 785 273 784.5 237.5 c 0,6,7
 785 201 785 201 761 177 c 128,-1,8
 737 153 737 153 703 153 c 128,-1,9
 669 153 669 153 645 177 c 128,-1,10
 621 201 621 201 622 237 c 0,1,2
EndSplineSet
LCarets2: 3 0 0 0
EndChar

StartChar: uniE36A
Encoding: 58218 58218 101
Width: 1024
LayerCount: 2
Fore
SplineSet
304 0 m 132,-1,0
 304 8 304 8 338 14 c 128,-1,1
 372 20 372 20 418.5 19.5 c 0,2,3
 464 20 464 20 498 14 c 128,-1,4
 532 8 532 8 532 0 c 128,-1,5
 532 -8 532 -8 498 -14 c 128,-1,6
 464 -20 464 -20 417.5 -19.5 c 0,7,8
 372 -20 372 -20 338 -14 c 128,-1,9
 304 -8 304 -8 304 0 c 132,-1,0
EndSplineSet
EndChar

StartChar: uniE36B
Encoding: 58219 58219 102
Width: 1022
Flags: W
LayerCount: 2
Fore
SplineSet
41 429 m 4,0,1
 40 454 40 454 72 470 c 128,-1,2
 104 486 104 486 149 486 c 128,-1,3
 194 486 194 486 226 470 c 128,-1,4
 258 454 258 454 257.5 429.5 c 0,5,6
 258 404 258 404 226 388 c 128,-1,7
 194 372 194 372 149 372 c 128,-1,8
 104 372 104 372 72 388 c 128,-1,9
 40 404 40 404 41 429 c 4,0,1
861 531 m 1,0,1
 860 530 860 530 861 527 c 2,2,-1
 863 521 l 2,3,4
 864 518 864 518 863 518 c 0,4,5
 800 547 800 547 663 499 c 1,6,7
 625 490 625 490 604.5 490.5 c 128,-1,8
 584 491 584 491 544 496 c 128,-1,9
 504 501 504 501 483 501 c 0,10,11
 448.11328125 500.98046875 448.11328125 500.98046875 444.309570312 501.388671875 c 0,12,13
 438.463867188 502.015625 438.463867188 502.015625 439.685546875 503.650390625 c 0,14,15
 441.744140625 506.407226562 441.744140625 506.407226562 465 513 c 1,16,-1
 529 519 l 1,17,-1
 577 531 l 1,18,-1
 693 529 l 1,19,-1
 753 529 l 1,20,21
 782 535 782 535 783 535 c 0,22,23
 785 534 785 534 823 531 c 0,24,25
 826 531 826 531 835 529.5 c 128,-1,26
 844 528 844 528 849.5 528 c 128,-1,27
 855 528 855 528 861 531 c 1,0,1
EndSplineSet
EndChar

StartChar: uniE36C
Encoding: 58220 58220 103
Width: 1024
Flags: W
LayerCount: 2
Fore
SplineSet
76 272 m 1,0,-1
 98 265.5 l 2,1,2
 120 259 120 259 161.5 248.5 c 128,-1,3
 203 238 203 238 253 228 c 128,-1,4
 303 218 303 218 369 211.5 c 128,-1,5
 435 205 435 205 496 206 c 0,6,7
 568 208 568 208 629 220.5 c 128,-1,8
 690 233 690 233 724 247 c 128,-1,9
 758 261 758 261 798.5 276 c 128,-1,10
 839 291 839 291 870 296 c 1,11,12
 865 283 865 283 855 261.5 c 128,-1,13
 845 240 845 240 809.5 185.5 c 128,-1,14
 774 131 774 131 734 89 c 128,-1,15
 694 47 694 47 629.5 12.5 c 128,-1,16
 565 -22 565 -22 496 -22 c 0,17,18
 414 -22 414 -22 337 12 c 128,-1,19
 260 46 260 46 208 96 c 128,-1,20
 156 146 156 146 122 192 c 128,-1,21
 88 238 88 238 76 272 c 1,0,-1
EndSplineSet
EndChar

StartChar: uniE36D
Encoding: 58221 58221 104
Width: 1024
Flags: W
LayerCount: 2
Fore
SplineSet
271 440 m 25,0,-1
 253 476 l 1,1,-1
 286 491 l 1,2,-1
 325 473 l 1,3,-1
 307 455 l 1,4,-1
 337 446 l 1,5,-1
 325 419 l 1,6,-1
 292 407 l 1,7,-1
 271 440 l 25,0,-1
76 512 m 128,-1,9
 76 466 76 466 132.5 428 c 128,-1,10
 189 390 189 390 287 367.5 c 128,-1,11
 385 345 385 345 502 344 c 0,12,13
 683 343 683 343 804.5 389 c 128,-1,14
 926 435 926 435 931 512 c 0,15,16
 935 581 935 581 809 630.5 c 128,-1,17
 683 680 683 680 505 680 c 0,18,19
 388 680 388 680 289.5 657.5 c 128,-1,20
 191 635 191 635 133.5 596.5 c 128,-1,8
 76 558 76 558 76 512 c 128,-1,9
13 404 m 128,-1,22
 13 518 13 518 156.5 599 c 128,-1,23
 300 680 300 680 502 680 c 128,-1,24
 704 680 704 680 847.5 599 c 128,-1,25
 991 518 991 518 991 404 c 128,-1,26
 991 290 991 290 847.5 209 c 128,-1,27
 704 128 704 128 502 128 c 128,-1,28
 300 128 300 128 156.5 209 c 128,-1,21
 13 290 13 290 13 404 c 128,-1,22
EndSplineSet
EndChar

StartChar: uniE36E
Encoding: 58222 58222 105
Width: 1024
Flags: W
LayerCount: 2
Fore
SplineSet
504 145 m 5,0,1
 467 167 467 167 457 204.5 c 132,-1,2
 447 242 447 242 450 295 c 4,3,4
 453 351 453 351 462 490 c 5,5,-1
 504 544 l 5,6,7
 505 541 505 541 507.5 519 c 132,-1,8
 510 497 510 497 516 487 c 5,9,10
 512 423 512 423 537 346 c 4,11,12
 552 300 552 300 552 205 c 4,13,14
 552 190 552 190 545.5 167.5 c 132,-1,15
 539 145 539 145 531 145 c 6,16,-1
 525 145 l 5,17,-1
 504 145 l 5,0,1
871.110351562 266.705078125 m 4,18,19
 874.677193051 270.659365024 874.677193051 270.659365024 875.536743164 270.395507812 c 132,-1,20
 876.396293277 270.131650601 876.396293277 270.131650601 875.173828125 265.458007812 c 4,21,22
 873.762324935 260.056927753 873.762324935 260.056927753 877.983398438 250.7109375 c 4,23,24
 881.148928388 243.700927445 881.148928388 243.700927445 880.73815918 242.341064453 c 132,-1,25
 880.327389971 240.981201461 880.327389971 240.981201461 875.215820312 241.548828125 c 4,26,27
 871.269564522 241.987158583 871.269564522 241.987158583 872.451171875 237.625976562 c 4,28,29
 873.475819224 233.840127993 873.475819224 233.840127993 872.710205078 233.463378906 c 132,-1,30
 871.944590932 233.08662982 871.944590932 233.08662982 867.73828125 235.306640625 c 4,31,32
 859.015586778 239.909674609 859.015586778 239.909674609 868.361328125 243.3984375 c 4,33,34
 872.930826131 245.102136786 872.930826131 245.102136786 873.03515625 251.645507812 c 6,35,-1
 871.99609375 256.942382812 l 5,36,37
 870.853515625 255.695638021 870.853515625 255.695638021 870.853515625 253.827148438 c 132,-1,38
 870.853515625 251.95703125 870.853515625 251.95703125 869.295898438 251.95703125 c 6,39,-1
 865.24609375 251.95703125 l 6,40,41
 862.754231601 251.95703125 862.754231601 251.95703125 865.24609375 254.450195312 c 132,-1,42
 867.73828125 256.942382812 867.73828125 256.942382812 867.73828125 259.954101562 c 132,-1,43
 867.73828125 262.965561152 867.73828125 262.965561152 871.110351562 266.705078125 c 4,18,19
893.805664062 292.044921875 m 4,44,45
 894.368164062 293.602783203 894.368164062 293.602783203 895.125610352 294.360229492 c 132,-1,46
 895.883056641 295.117675781 895.883056641 295.117675781 896.40234375 294.641601562 c 4,47,48
 897.648152164 293.498738101 897.648152164 293.498738101 895.051757812 290.90234375 c 4,49,50
 893.537162467 289.387748404 893.537162467 289.387748404 893.277709961 289.625732422 c 132,-1,51
 893.018257455 289.863716439 893.018257455 289.863716439 893.805664062 292.044921875 c 4,44,45
827 236 m 5,52,53
 829 227 829 227 847.305664062 216.4921875 c 4,54,55
 848.202457972 216.132857527 848.202457972 216.132857527 856.106445312 224.33203125 c 4,56,57
 857 225 857 225 861.1953125 222.047851562 c 4,58,59
 865 219 865 219 866.907226562 218.864257812 c 4,60,61
 874 218 874 218 873.969726562 214.362304688 c 4,62,63
 874 210 874 210 878.124023438 211.083984375 c 4,64,65
 887 212 887 212 878.7890625 200.23828125 c 4,66,67
 876 196 876 196 876.597303173 196.162860824 c 4,68,69
 877 196 877 196 879.578125 196.76953125 c 4,70,71
 890.5859375 199.882889984 890.5859375 199.882889984 890.5859375 191.098632812 c 6,72,-1
 890.5859375 186.737304688 l 5,73,-1
 894.740234375 190.891601562 l 6,74,75
 896 192 896 192 896.655229519 193.192306922 c 4,76,77
 903 205 903 205 898.686523438 204.184570312 c 4,78,79
 897 204 897 204 896.817382812 210.311523438 c 4,80,81
 897 216 897 216 894.740234375 217.685546875 c 4,82,83
 893 219 893 219 894.84375 222.982421875 c 4,84,85
 897 227 897 227 895.8828125 227.032226562 c 4,86,87
 895 227 895 227 897.825195312 234.509765625 c 4,88,89
 902 244 902 244 899.102539062 243.649414062 c 4,90,91
 897.357132949 243.940450196 897.357132949 243.940450196 892.974609375 233.678710938 c 6,92,-1
 888.716796875 223.708984375 l 5,93,-1
 878.747070312 224.133789062 l 6,94,95
 870 224 870 224 865.661107227 228.040593436 c 4,96,97
 859 234 859 234 859.4296875 235.340820312 c 4,98,99
 860 238 860 238 853.04296875 238.047241211 c 4,100,101
 845 238 845 238 843.228515625 236.188476562 c 4,102,-1
 827 236 l 5,52,53
849 258 m 5,103,104
 845 254 845 254 846.759765625 249.879882812 c 4,105,106
 848 246 848 246 841.5 246 c 4,107,108
 841 246 841 246 838.71875 238.041015625 c 4,109,-1
 851 243 l 4,110,-1
 849 251 l 5,111,112
 852 251 852 251 852.962144834 254.008280586 c 4,113,114
 856 258 856 258 855.834960938 263.588867188 c 4,115,116
 856 266 856 266 858.391601562 265.146484375 c 4,117,118
 861 264 861 264 870.646484375 273.455078125 c 4,119,120
 880 283 880 283 882.901367188 279.686523438 c 4,121,122
 885 277 885 277 889.028320312 272.935546875 c 132,-1,123
 893 269 893 269 895.8828125 258.5 c 4,124,125
 900 246 900 246 901.1796875 247.803710938 c 4,126,127
 906 253 906 253 900.971679688 255.047851562 c 4,128,129
 899 256 899 256 898.89453125 260.577148438 c 4,130,131
 898.992772935 264.696931673 898.992772935 264.696931673 894.532226562 270.858398438 c 6,132,-1
 890.170898438 276.8828125 l 5,133,-1
 895.051757812 280.932617188 l 6,134,135
 900 285 900 285 898.063476562 285.086914062 c 132,-1,136
 896 285 896 285 892.456054688 281.8671875 c 4,137,138
 889 279 889 279 886.224609375 283.944335938 c 4,139,140
 884 289 884 289 882.173828125 289.344726562 c 4,141,142
 880.848639953 288.955549005 880.848639953 288.955549005 876.150390625 296.822265625 c 6,143,-1
 871.684570312 304.299804688 l 5,144,-1
 878.227539062 316.03515625 l 6,145,146
 885 328 885 328 888.09375 331.509765625 c 4,147,148
 890 334 890 334 890.357198981 334.303642809 c 4,149,150
 891 335 891 335 887.782226562 333.8984375 c 4,151,152
 884 333 884 333 881 326.5 c 132,-1,153
 878 320 878 320 877.955126778 320.664742078 c 4,154,-1
 866 278 l 6,155,-1
 841 292 l 5,156,157
 860 285 860 285 849 258 c 5,103,104
873 352 m 5,158,-1
 862 370 l 5,159,-1
 860.371582031 371.849487305 l 4,160,161
 862 378 862 378 865.661132812 380.2421875 c 4,162,163
 870 383 870 383 869.815429688 378.659179688 c 4,164,165
 870 374 870 374 874.80078125 374.504882812 c 4,166,167
 879 375 879 375 882.070550159 368.843028976 c 4,168,169
 885 363 885 363 883.186523438 359.7578125 c 4,170,171
 882 357 882 357 884.874023438 358.51171875 c 4,172,173
 888 360 888 360 890.6953125 353.526367188 c 4,174,175
 893 347 893 347 891.020874023 344.690307617 c 4,176,177
 888.915217749 341.887132829 888.915217749 341.887132829 882.278320312 342.85546875 c 6,178,-1
 876.046875 343.764648438 l 5,179,-1
 873 352 l 5,158,-1
853 363.509765625 m 5,180,-1
 852.31640625 364.950195312 l 6,181,182
 852 366 852 366 851.324048395 367.679209408 c 4,183,184
 851 369 851 369 847.3828125 365.78125 c 4,185,186
 845 363 845 363 844.956176758 358.323974609 c 4,187,188
 845 354 845 354 848.421875 351.890625 c 4,189,190
 852 350 852 350 848.421875 348.4375 c 132,-1,191
 845 347 845 347 848.940429688 344.076171875 c 132,-1,192
 853 341 853 341 852.056640625 339.090820312 c 132,-1,193
 851 337 851 337 853.19921875 337.1171875 c 4,194,195
 855 337 855 337 854.963867188 333.482421875 c 4,196,197
 854 330 854 330 856.833984375 325.486328125 c 4,198,199
 859 321 859 321 857.975585938 319.774414062 c 5,200,-1
 860.364257812 318.423828125 l 6,201,202
 864 318 864 318 863.064453125 324.655273438 c 4,203,204
 862 331 862 331 864.20703125 330.88671875 c 4,205,206
 866 331 866 331 865.141601562 332.1328125 c 4,207,208
 864 333 864 333 866.936523438 341.6875 c 4,209,210
 871 354 871 354 868.361328125 353.479492188 c 4,211,212
 862 352 862 352 865.666992188 356.849609375 c 4,213,214
 868 360 868 360 864.623046875 363.704101562 c 4,215,216
 861 367 861 367 862.545898438 364.120117188 c 4,217,218
 864 361 864 361 861.71484375 363.321289062 c 4,219,-1
 853 363.509765625 l 5,180,-1
822.930664062 336.3671875 m 4,220,221
 823 346 823 346 822.930664062 345.194335938 c 4,222,223
 820 338 820 338 818.705078125 337.9765625 c 4,224,225
 742.718363845 358.801623718 742.718363845 358.801623718 753.661132812 327.955078125 c 4,226,227
 753.875933566 327.349674272 753.875933566 327.349674272 751.583984375 322.762695312 c 6,228,-1
 750.857421875 321.30859375 l 5,229,230
 753 319 753 319 754.907226562 318.711914062 c 4,231,232
 818.474213976 284.256197756 818.474213976 284.256197756 819.918945312 317.154296875 c 4,233,234
 820 319 820 319 820.958007812 323.385742188 c 4,235,236
 822 328 822 328 822.930664062 336.3671875 c 4,220,221
859 300 m 5,237,238
 858 300 858 300 857.768554688 299.9375 c 4,239,240
 857 300 857 300 850.447087141 305.824184254 c 4,241,242
 848 308 848 308 845.305664062 303.780273438 c 4,243,244
 843 300 843 300 844.890625 299.73046875 c 4,245,246
 847 300 847 300 846.967773438 297.861328125 c 4,247,-1
 853 299 l 4,248,249
 853 295 853 295 839.708759798 296.688905894 c 4,250,251
 837 297 837 297 836.20703125 298.484375 c 4,252,253
 835 301 835 301 837.205078125 302.22265625 c 4,254,255
 840 304 840 304 837.1015625 303.884765625 c 4,256,257
 834 304 834 304 834.504882812 306.065429688 c 132,-1,258
 835 308 835 308 836.478515625 307.103515625 c 4,259,260
 838 306 838 306 840.528320312 309.596679688 c 132,-1,261
 843 313 843 313 836.166992188 315.412109375 c 4,262,263
 830 318 830 318 833.05078125 320.8125 c 4,264,265
 836 324 836 324 833.985351562 326.420898438 c 132,-1,266
 832 329 832 329 833.258789062 328.809570312 c 4,267,268
 835 329 835 329 832.3359375 331.924804688 c 4,269,270
 831 334 831 334 831.683964138 334.742135482 c 4,271,272
 835 337 835 337 842.190429688 331.114257812 c 4,273,274
 847 327 847 327 846.967773438 324.447265625 c 132,-1,275
 847 322 847 322 850.496694562 318.112193005 c 4,276,277
 854 314 854 314 856.314453125 314.26953125 c 4,278,279
 859 314 859 314 862.752929688 306.791992188 c 4,280,281
 864 305 864 305 859 300 c 5,237,238
504 145 m 5,282,283
 467 167 467 167 457 204.5 c 132,-1,284
 447 242 447 242 450 295 c 4,285,286
 453 351 453 351 462 490 c 5,287,-1
 504 544 l 5,288,289
 505 541 505 541 507.5 519 c 132,-1,290
 510 497 510 497 516 487 c 5,291,292
 512 423 512 423 537 346 c 4,293,294
 552 300 552 300 552 205 c 4,295,296
 552 190 552 190 545.5 167.5 c 132,-1,297
 539 145 539 145 531 145 c 6,298,-1
 525 145 l 5,299,-1
 504 145 l 5,282,283
871.110351562 266.705078125 m 4,300,301
 874.677193051 270.659365024 874.677193051 270.659365024 875.536743164 270.395507812 c 132,-1,302
 876.396293277 270.131650601 876.396293277 270.131650601 875.173828125 265.458007812 c 4,303,304
 873.762324935 260.056927753 873.762324935 260.056927753 877.983398438 250.7109375 c 4,305,306
 881.148928388 243.700927445 881.148928388 243.700927445 880.73815918 242.341064453 c 132,-1,307
 880.327389971 240.981201461 880.327389971 240.981201461 875.215820312 241.548828125 c 4,308,309
 871.269564522 241.987158583 871.269564522 241.987158583 872.451171875 237.625976562 c 4,310,311
 873.475819224 233.840127993 873.475819224 233.840127993 872.710205078 233.463378906 c 132,-1,312
 871.944590932 233.08662982 871.944590932 233.08662982 867.73828125 235.306640625 c 4,313,314
 859.015586778 239.909674609 859.015586778 239.909674609 868.361328125 243.3984375 c 4,315,316
 872.930826131 245.102136786 872.930826131 245.102136786 873.03515625 251.645507812 c 6,317,-1
 871.99609375 256.942382812 l 5,318,319
 870.853515625 255.695638021 870.853515625 255.695638021 870.853515625 253.827148438 c 132,-1,320
 870.853515625 251.95703125 870.853515625 251.95703125 869.295898438 251.95703125 c 6,321,-1
 865.24609375 251.95703125 l 6,322,323
 862.754231601 251.95703125 862.754231601 251.95703125 865.24609375 254.450195312 c 132,-1,324
 867.73828125 256.942382812 867.73828125 256.942382812 867.73828125 259.954101562 c 132,-1,325
 867.73828125 262.965561152 867.73828125 262.965561152 871.110351562 266.705078125 c 4,300,301
893.805664062 292.044921875 m 4,326,327
 894.368164062 293.602783203 894.368164062 293.602783203 895.125610352 294.360229492 c 132,-1,328
 895.883056641 295.117675781 895.883056641 295.117675781 896.40234375 294.641601562 c 4,329,330
 897.648152164 293.498738101 897.648152164 293.498738101 895.051757812 290.90234375 c 4,331,332
 893.537162467 289.387748404 893.537162467 289.387748404 893.277709961 289.625732422 c 132,-1,333
 893.018257455 289.863716439 893.018257455 289.863716439 893.805664062 292.044921875 c 4,326,327
827 236 m 5,334,335
 829 227 829 227 847.305664062 216.4921875 c 4,336,337
 848.202457972 216.132857527 848.202457972 216.132857527 856.106445312 224.33203125 c 4,338,339
 857 225 857 225 861.1953125 222.047851562 c 4,340,341
 865 219 865 219 866.907226562 218.864257812 c 4,342,343
 874 218 874 218 873.969726562 214.362304688 c 4,344,345
 874 210 874 210 878.124023438 211.083984375 c 4,346,347
 887 212 887 212 878.7890625 200.23828125 c 4,348,349
 876 196 876 196 876.597303173 196.162860824 c 4,350,351
 877 196 877 196 879.578125 196.76953125 c 4,352,353
 890.5859375 199.882889984 890.5859375 199.882889984 890.5859375 191.098632812 c 6,354,-1
 890.5859375 186.737304688 l 5,355,-1
 894.740234375 190.891601562 l 6,356,357
 896 192 896 192 896.655229519 193.192306922 c 4,358,359
 903 205 903 205 898.686523438 204.184570312 c 4,360,361
 897 204 897 204 896.817382812 210.311523438 c 4,362,363
 897 216 897 216 894.740234375 217.685546875 c 4,364,365
 893 219 893 219 894.84375 222.982421875 c 4,366,367
 897 227 897 227 895.8828125 227.032226562 c 4,368,369
 895 227 895 227 897.825195312 234.509765625 c 4,370,371
 902 244 902 244 899.102539062 243.649414062 c 4,372,373
 897.357132949 243.940450196 897.357132949 243.940450196 892.974609375 233.678710938 c 6,374,-1
 888.716796875 223.708984375 l 5,375,-1
 878.747070312 224.133789062 l 6,376,377
 870 224 870 224 865.661107227 228.040593436 c 4,378,379
 859 234 859 234 859.4296875 235.340820312 c 4,380,381
 860 238 860 238 853.04296875 238.047241211 c 4,382,383
 845 238 845 238 843.228515625 236.188476562 c 4,384,-1
 827 236 l 5,334,335
849 258 m 5,385,386
 845 254 845 254 846.759765625 249.879882812 c 4,387,388
 848 246 848 246 841.5 246 c 4,389,390
 841 246 841 246 838.71875 238.041015625 c 4,391,-1
 851 243 l 4,392,-1
 849 251 l 5,393,394
 852 251 852 251 852.962144834 254.008280586 c 4,395,396
 856 258 856 258 855.834960938 263.588867188 c 4,397,398
 856 266 856 266 858.391601562 265.146484375 c 4,399,400
 861 264 861 264 870.646484375 273.455078125 c 4,401,402
 880 283 880 283 882.901367188 279.686523438 c 4,403,404
 885 277 885 277 889.028320312 272.935546875 c 132,-1,405
 893 269 893 269 895.8828125 258.5 c 4,406,407
 900 246 900 246 901.1796875 247.803710938 c 4,408,409
 906 253 906 253 900.971679688 255.047851562 c 4,410,411
 899 256 899 256 898.89453125 260.577148438 c 4,412,413
 898.992772935 264.696931673 898.992772935 264.696931673 894.532226562 270.858398438 c 6,414,-1
 890.170898438 276.8828125 l 5,415,-1
 895.051757812 280.932617188 l 6,416,417
 900 285 900 285 898.063476562 285.086914062 c 132,-1,418
 896 285 896 285 892.456054688 281.8671875 c 4,419,420
 889 279 889 279 886.224609375 283.944335938 c 4,421,422
 884 289 884 289 882.173828125 289.344726562 c 4,423,424
 880.848639953 288.955549005 880.848639953 288.955549005 876.150390625 296.822265625 c 6,425,-1
 871.684570312 304.299804688 l 5,426,-1
 878.227539062 316.03515625 l 6,427,428
 885 328 885 328 888.09375 331.509765625 c 4,429,430
 890 334 890 334 890.357198981 334.303642809 c 4,431,432
 891 335 891 335 887.782226562 333.8984375 c 4,433,434
 884 333 884 333 881 326.5 c 132,-1,435
 878 320 878 320 877.955126778 320.664742078 c 4,436,-1
 866 278 l 6,437,-1
 841 292 l 5,438,439
 860 285 860 285 849 258 c 5,385,386
873 352 m 5,440,-1
 862 370 l 5,441,-1
 860.371582031 371.849487305 l 4,442,443
 862 378 862 378 865.661132812 380.2421875 c 4,444,445
 870 383 870 383 869.815429688 378.659179688 c 4,446,447
 870 374 870 374 874.80078125 374.504882812 c 4,448,449
 879 375 879 375 882.070550159 368.843028976 c 4,450,451
 885 363 885 363 883.186523438 359.7578125 c 4,452,453
 882 357 882 357 884.874023438 358.51171875 c 4,454,455
 888 360 888 360 890.6953125 353.526367188 c 4,456,457
 893 347 893 347 891.020874023 344.690307617 c 4,458,459
 888.915217749 341.887132829 888.915217749 341.887132829 882.278320312 342.85546875 c 6,460,-1
 876.046875 343.764648438 l 5,461,-1
 873 352 l 5,440,-1
853 363.509765625 m 5,462,-1
 852.31640625 364.950195312 l 6,463,464
 852 366 852 366 851.324048395 367.679209408 c 4,465,466
 851 369 851 369 847.3828125 365.78125 c 4,467,468
 845 363 845 363 844.956176758 358.323974609 c 4,469,470
 845 354 845 354 848.421875 351.890625 c 4,471,472
 852 350 852 350 848.421875 348.4375 c 132,-1,473
 845 347 845 347 848.940429688 344.076171875 c 132,-1,474
 853 341 853 341 852.056640625 339.090820312 c 132,-1,475
 851 337 851 337 853.19921875 337.1171875 c 4,476,477
 855 337 855 337 854.963867188 333.482421875 c 4,478,479
 854 330 854 330 856.833984375 325.486328125 c 4,480,481
 859 321 859 321 857.975585938 319.774414062 c 5,482,-1
 860.364257812 318.423828125 l 6,483,484
 864 318 864 318 863.064453125 324.655273438 c 4,485,486
 862 331 862 331 864.20703125 330.88671875 c 4,487,488
 866 331 866 331 865.141601562 332.1328125 c 4,489,490
 864 333 864 333 866.936523438 341.6875 c 4,491,492
 871 354 871 354 868.361328125 353.479492188 c 4,493,494
 862 352 862 352 865.666992188 356.849609375 c 4,495,496
 868 360 868 360 864.623046875 363.704101562 c 4,497,498
 861 367 861 367 862.545898438 364.120117188 c 4,499,500
 864 361 864 361 861.71484375 363.321289062 c 4,501,-1
 853 363.509765625 l 5,462,-1
822.930664062 336.3671875 m 4,502,503
 823 346 823 346 822.930664062 345.194335938 c 4,504,505
 820 338 820 338 818.705078125 337.9765625 c 4,506,507
 742.718363845 358.801623718 742.718363845 358.801623718 753.661132812 327.955078125 c 4,508,509
 753.875933566 327.349674272 753.875933566 327.349674272 751.583984375 322.762695312 c 6,510,-1
 750.857421875 321.30859375 l 5,511,512
 753 319 753 319 754.907226562 318.711914062 c 4,513,514
 818.474213976 284.256197756 818.474213976 284.256197756 819.918945312 317.154296875 c 4,515,516
 820 319 820 319 820.958007812 323.385742188 c 4,517,518
 822 328 822 328 822.930664062 336.3671875 c 4,502,503
859 300 m 5,519,520
 858 300 858 300 857.768554688 299.9375 c 4,521,522
 857 300 857 300 850.447087141 305.824184254 c 4,523,524
 848 308 848 308 845.305664062 303.780273438 c 4,525,526
 843 300 843 300 844.890625 299.73046875 c 4,527,528
 847 300 847 300 846.967773438 297.861328125 c 4,529,-1
 853 299 l 4,530,531
 853 295 853 295 839.708759798 296.688905894 c 4,532,533
 837 297 837 297 836.20703125 298.484375 c 4,534,535
 835 301 835 301 837.205078125 302.22265625 c 4,536,537
 840 304 840 304 837.1015625 303.884765625 c 4,538,539
 834 304 834 304 834.504882812 306.065429688 c 132,-1,540
 835 308 835 308 836.478515625 307.103515625 c 4,541,542
 838 306 838 306 840.528320312 309.596679688 c 132,-1,543
 843 313 843 313 836.166992188 315.412109375 c 4,544,545
 830 318 830 318 833.05078125 320.8125 c 4,546,547
 836 324 836 324 833.985351562 326.420898438 c 132,-1,548
 832 329 832 329 833.258789062 328.809570312 c 4,549,550
 835 329 835 329 832.3359375 331.924804688 c 4,551,552
 831 334 831 334 831.683964138 334.742135482 c 4,553,554
 835 337 835 337 842.190429688 331.114257812 c 4,555,556
 847 327 847 327 846.967773438 324.447265625 c 132,-1,557
 847 322 847 322 850.496694562 318.112193005 c 4,558,559
 854 314 854 314 856.314453125 314.26953125 c 4,560,561
 859 314 859 314 862.752929688 306.791992188 c 4,562,563
 864 305 864 305 859 300 c 5,519,520
EndSplineSet
EndChar

StartChar: uniE36F
Encoding: 58223 58223 106
Width: 810
Flags: W
LayerCount: 2
Fore
SplineSet
37 439.959960938 m 5,0,-1
 333 -2.0400390625 l 5,1,-1
 468 -2.0400390625 l 1,2,-1
 172 439.959960938 l 1,3,-1
 37 439.959960938 l 5,0,-1
346 822 m 1,4,-1
 36 440 l 1,5,-1
 172 440 l 1,6,-1
 482 822 l 1,7,-1
 346 822 l 1,4,-1
EndSplineSet
EndChar

StartChar: uniE370
Encoding: 58224 58224 107
Width: 1024
Flags: W
LayerCount: 2
Fore
SplineSet
632.905273438 353.603515625 m 4,0,1
 631.917995033 354.207287243 631.917995033 354.207287243 628.945742935 352.596819856 c 132,-1,2
 625.973490836 350.986352469 625.973490836 350.986352469 622.547223675 348.644372819 c 132,-1,3
 619.120956515 346.302393169 619.120956515 346.302393169 618.252929688 345.91796875 c 4,4,5
 611.036523195 341.759870964 611.036523195 341.759870964 615.836914062 340.279296875 c 4,6,7
 624.209960938 341.156619802 624.209960938 341.156619802 624.209960938 337.716796875 c 4,8,9
 624.209960938 335.444341317 624.209960938 335.444341317 626.160575181 335.752121978 c 132,-1,10
 628.111189423 336.059902639 628.111189423 336.059902639 630.437144284 337.143513018 c 132,-1,11
 632.763099145 338.227123396 632.763099145 338.227123396 634.676757812 336.850585938 c 4,12,13
 637.414663754 334.605706377 637.414663754 334.605706377 647.879882812 342.740234375 c 4,14,15
 657.219704077 350 657.219704077 350 648.041015625 350 c 4,16,17
 643.532226562 350 643.532226562 350 643.532226562 351.637695312 c 4,18,19
 643.532226562 352.43647185 643.532226562 352.43647185 641.186519381 352.75039762 c 132,-1,20
 638.840812199 353.064323389 638.840812199 353.064323389 636.115316974 353.185756377 c 132,-1,21
 633.389821748 353.307189365 633.389821748 353.307189365 632.905273438 353.603515625 c 4,0,1
301.60546875 480.774414062 m 4,22,23
 300.207162588 481.949484274 300.207162588 481.949484274 294.778481376 478.209605418 c 132,-1,24
 289.349800165 474.469726562 289.349800165 474.469726562 288.482421875 474.469726562 c 4,25,26
 286.550343382 474.469726562 286.550343382 474.469726562 283.893335753 471.947289554 c 132,-1,27
 281.236328125 469.424852547 281.236328125 469.424852547 281.236328125 467.590820312 c 4,28,29
 281.236328125 467.274763196 281.236328125 467.274763196 288.333297164 465.726747368 c 132,-1,30
 295.430266203 464.17873154 295.430266203 464.17873154 301.513382523 463.568356223 c 132,-1,31
 307.596498842 462.957980906 307.596498842 462.957980906 308.610351562 464.970703125 c 4,32,33
 308.610351562 466.280273438 308.610351562 466.280273438 311.025390625 466.280273438 c 132,-1,34
 313.440429688 466.280273438 313.440429688 466.280273438 313.440429688 467.91796875 c 132,-1,35
 313.440429688 469.555664062 313.440429688 469.555664062 315.614257812 469.555664062 c 132,-1,36
 317.788403518 469.555664062 317.788403518 469.555664062 320.686523438 472.83203125 c 4,37,38
 322.824353822 475.248603687 322.824353822 475.248603687 322.560614302 475.678012781 c 132,-1,39
 322.296874782 476.107421875 322.296874782 476.107421875 318.673828125 476.107421875 c 4,40,41
 315.398605607 476.107421875 315.398605607 476.107421875 313.187312646 478.61919441 c 132,-1,42
 310.976019685 481.130966945 310.976019685 481.130966945 307.64453125 480.283203125 c 4,43,44
 303.457797272 479.217804982 303.457797272 479.217804982 301.60546875 480.774414062 c 4,22,23
495.715820312 728.928710938 m 4,45,46
 495.7506644 728.944055016 495.7506644 728.944055016 499.013645237 730.637296472 c 132,-1,47
 502.276626073 732.330537927 502.276626073 732.330537927 505.238552511 733.562802513 c 132,-1,48
 508.200478949 734.795067099 508.200478949 734.795067099 511.887550076 735.946295188 c 132,-1,49
 515.574621203 737.097523277 515.574621203 737.097523277 518.242623675 736.586867621 c 132,-1,50
 520.910626148 736.076211965 520.910626148 736.076211965 521.80078125 733.725585938 c 4,51,52
 522.606973617 731.596679688 522.606973617 731.596679688 526.631835938 731.596679688 c 4,53,54
 534.359686891 731.596679688 534.359686891 731.596679688 523.733398438 724.33203125 c 4,55,56
 517.695242897 720.204053978 517.695242897 720.204053978 510.024979338 719.166789491 c 132,-1,57
 502.354715779 718.129525004 502.354715779 718.129525004 501.158203125 721.279296875 c 4,58,59
 500.94732634 721.834462287 500.94732634 721.834462287 499.698466158 722.180181867 c 132,-1,60
 498.449605976 722.525901448 498.449605976 722.525901448 496.017451428 722.947737582 c 4,61,62
 486.0569613 724.675298295 486.0569613 724.675298295 495.715820312 728.928710938 c 4,45,46
EndSplineSet
EndChar
